<?xml version="1.0" standalone="no"?>
<!DOCTYPE svg PUBLIC "-//W3C//DTD SVG 1.1//EN" "http://www.w3.org/Graphics/SVG/1.1/DTD/svg11.dtd" >
<svg xmlns="http://www.w3.org/2000/svg">
<metadata></metadata>
<defs>
<font id="corpulent_caps_brkregular" horiz-adv-x="1261" >
<font-face units-per-em="2048" ascent="1638" descent="-410" />
<missing-glyph horiz-adv-x="1024" />
<glyph unicode="&#xd;" horiz-adv-x="2048" />
<glyph unicode=" "  horiz-adv-x="1024" />
<glyph unicode="&#x09;" horiz-adv-x="1024" />
<glyph unicode="&#xa0;" horiz-adv-x="1024" />
<glyph unicode="!" horiz-adv-x="499" d="M20 213q0 -88 56.5 -150.5t152.5 -62.5q45 0 79 14.5t63.5 42t47 66.5t17.5 82q0 92 -56 151.5t-151 59.5q-88 0 -148.5 -55.5t-60.5 -147.5zM20 670q0 -39 21 -68q18 -33 51 -55q14 -10 27.5 -17.5t45.5 -18.5t64 -11q31 0 70 13t67.5 34.5t49 54.5t20.5 68v590l-4 14 l-8 22q-25 61 -79.5 94t-115.5 33q-31 0 -71.5 -13t-69.5 -34.5t-48.5 -52.5t-19.5 -70v-583z" />
<glyph unicode="&#x22;" horiz-adv-x="880" d="M20 1061q0 -39 17.5 -72t50.5 -61q14 -10 27.5 -17.5t45.5 -18.5t70 -11q57 0 106.5 24.5t82.5 77.5l43 -43l33 -33l43 -20q25 -6 69 -6q29 0 69 12t69.5 33.5t50 54.5t20.5 70v204q0 39 -20 68q-16 29 -52 53q-14 10 -27 17.5t-45 18.5t-65 11q-66 0 -102.5 -24.5 t-85.5 -77.5l-6 6l-11 12l-8 13q-66 73 -164 73q-39 0 -74.5 -13t-66.5 -37.5t-50.5 -57.5t-19.5 -74v-182z" />
<glyph unicode="#" horiz-adv-x="1255" d="M20 459q0 -55 31 -115q31 -53 90 -78q0 -49 11.5 -99t36 -86t65.5 -61q45 -20 102 -20q53 0 94.5 20.5t65 52t39.5 81.5q6 25 10 45t4 49h74q0 -51 13.5 -96.5t38 -77t67.5 -56.5q41 -18 98 -18q61 0 100 20.5t64 56.5t37 87q4 14 8 48t8 54q51 31 83 77t32 114 q0 47 -10 78q-6 35 -39 69l-21 17l-30 24l-15 12v109l6 6q55 41 82 85t27 112q0 63 -29.5 109t-85.5 81q0 47 -16 101q-10 53 -35 87.5t-64.5 56t-101.5 21.5q-57 0 -96 -19.5t-65.5 -52t-41.5 -79.5q-6 -20 -10 -45t-4 -51h-74q0 51 -13 93t-38.5 77.5t-67.5 56t-94 20.5 q-63 0 -102 -22q-39 -18 -62.5 -54t-37.5 -89l-13 -101q-57 -20 -89 -76.5t-32 -115.5q0 -63 31 -119q31 -49 90 -82v-109q-57 -27 -89 -79t-32 -119zM569 676v74h74v-74h-74z" />
<glyph unicode="$" d="M20 211q0 -66 37 -121q37 -49 97 -76l24 -10l19 -6h198q0 -51 13.5 -97t40.5 -79q23 -33 66.5 -53.5t96.5 -20.5q61 0 99 23q37 16 65 55q23 31 35 82l12 94l6 6q172 47 270.5 161t98.5 294q0 150 -75.5 265.5t-219.5 166.5l-74 23q-41 12 -65 12h-297l-12 8l-6 6v43l8 6 l10 4l14 7l11 4h542l15 4l22 10q59 29 93 80t34 117q0 63 -36 116.5t-97 79.5l-25 8l-16 7h-201q0 51 -14 96q-8 43 -36 78.5t-67.5 56t-95.5 20.5q-57 0 -94 -18t-70 -57q-25 -35 -34 -69t-13 -58.5t-4 -51.5l-6 -6q-80 -18 -150.5 -60t-116.5 -100.5t-74 -137.5t-28 -158 q0 -59 4.5 -84t18.5 -66q23 -74 63.5 -129t104 -101t141.5 -65l25 -6l31 -8q18 0 28 -4l13 -2h303l4 -4l8 -4l6 -7v-49l-12 -6l-25 -8h-549l-16 -6l-21 -10q-57 -25 -92 -79.5t-35 -115.5z" />
<glyph unicode="%" horiz-adv-x="1509" d="M20 1223q0 -68 24 -129.5t69 -112.5q41 -41 106 -72q16 -6 53 -16t80 -10q66 0 129.5 24.5t110.5 71.5q47 43 74 106q6 16 16 53.5t10 80.5q0 70 -25.5 130t-70.5 104t-113 75q-68 27 -131 26q-70 0 -130 -25.5t-103 -68.5t-74 -108q-25 -59 -25 -129zM147 160l3 -8 l4 -11q27 -63 77 -101t121 -38q47 0 92 18.5t78 59.5l750 997q20 29 33.5 64t13.5 78q0 88 -62.5 148t-148.5 60q-47 0 -86 -16q-41 -12 -72 -49l-766 -1022l-24 -39q-12 -23 -13 -39v-102zM274 1217q0 31 22.5 54t55.5 23q35 0 57.5 -19.5t22.5 -55.5q0 -33 -22 -58 q-18 -25 -54 -24q-33 0 -57.5 23.5t-24.5 56.5zM774 207q0 -66 25 -131q27 -61 70.5 -104.5t109 -70t129.5 -26.5q70 0 132.5 25.5t105.5 72.5q47 43 73 105q6 16 16.5 53t10.5 80q0 72 -25.5 134.5t-70.5 105.5t-112 69.5t-130 26.5q-72 0 -132.5 -25.5t-104.5 -70.5 t-70.5 -108.5t-26.5 -135.5zM1028 211q0 33 23.5 56.5t56.5 25.5q31 0 55.5 -23.5t24.5 -54.5q0 -35 -23 -57q-18 -23 -55 -23q-31 0 -56.5 21.5t-25.5 54.5z" />
<glyph unicode="&#x26;" horiz-adv-x="1255" d="M20 463q0 -92 28 -162t77 -121q27 -27 53 -47q18 -14 64 -43q61 -34 147 -63q0 -49 11.5 -101.5t37 -91.5t65.5 -62.5t103 -23.5q55 0 93 19.5t63.5 53.5t40 80t20.5 97h195l8 2l16 6l19 8l16 6q59 25 87 78.5t28 112.5q0 74 -36 122t-103 79l-15 6l-10 4h-434 q-33 0 -77 11t-68 28q6 10 32 22l54 11l55 6q29 0 41 4q78 8 132 68.5t54 142.5q0 70 -41 127t-104.5 74.5t-102.5 17.5q-31 0 -45 2t-45 14l-16 4l-14 15l12 6l31 10l24 6l19 4l26 6q16 0 25 5l14 2h428l10 2l15 6q61 29 100 79t39 124q0 61 -29 110q-25 53 -86 80l-16 6 l-19 6l-16 6l-8 3h-195q0 29 -3 44t-15 50q-12 45 -38 80.5t-65.5 56t-95.5 20.5q-61 0 -101 -22.5t-65.5 -59t-38.5 -94.5l-12 -102q-86 -27 -147 -66q-72 -39 -117 -89t-78 -124q-27 -74 -27 -159q0 -74 15.5 -126.5t50.5 -111.5l6 -12l-2 -6l-4 -7l-12 -20l-8 -16 l-11 -17l-10 -24q-14 -35 -20 -80z" />
<glyph unicode="'" horiz-adv-x="499" d="M20 1055q0 -39 17.5 -71t52.5 -56q14 -10 27.5 -17.5t45.5 -18.5t68 -11q35 0 70 11t64.5 31.5t50 51.5t20.5 63v222l-2 12q-2 10 -4 12q-25 63 -76 101t-123 38q-35 0 -73.5 -14t-66.5 -34.5t-49.5 -55.5t-21.5 -70v-194z" />
<glyph unicode="(" horiz-adv-x="880" d="M20 555q0 -115 47.5 -213t125.5 -180q76 -72 178 -117t217 -45q96 0 162.5 49t66.5 156q0 35 -10 69.5t-29.5 63.5t-51.5 48.5t-73 29.5l-45 4q-27 0 -45 6t-27.5 9t-23.5 10.5t-33 31.5l-20 37l-10 41v326q0 41 23.5 64.5t51 34.5t74.5 17l61 11q78 12 118 75.5 t40 135.5q0 94 -62.5 150t-156.5 56t-179 -27.5t-162 -79.5t-132 -125t-80 -167q-6 -29 -14 -68.5t-8 -85.5l-3 -157v-160z" />
<glyph unicode=")" horiz-adv-x="880" d="M20 209q0 -100 67 -154.5t159 -54.5q88 0 172 25q47 14 80.5 29.5t72.5 41.5q68 49 123.5 117t85.5 156l25 73q12 41 12 76v393l-8 52l-10 51q-25 92 -79 167.5t-130 129t-164 84t-186 30.5q-47 0 -84 -14t-72 -45q-27 -23 -45.5 -63.5t-18.5 -85.5q0 -41 11.5 -74 t33 -62.5t52 -48t67.5 -24.5l76 -9q41 0 74 -26q27 -20 44 -50t17 -65v-285l-4 -28l-8 -27q-18 -37 -36.5 -55.5t-45.5 -28.5l-53 -10q-31 0 -64 -8q-74 -12 -119 -74.5t-45 -132.5z" />
<glyph unicode="*" horiz-adv-x="983" d="M20 1040q0 -66 27 -106q25 -33 76 -84l-6 -45l-6 -43q0 -90 59 -151.5t152 -61.5q37 0 75.5 12t69.5 43l39 -20l31 -17l34 -14l47 -4q47 0 83 16.5t64 43t46 67.5t18 84q0 25 -10 45l-8 45l6 6q47 35 75 80t28 104q0 49 -19.5 90t-52.5 68q-18 14 -28.5 20.5t-45.5 20.5 q-23 6 -48.5 10t-41.5 6l-8 9l-8 16q-2 14 -4 18l-5 11q-23 55 -76 85.5t-112 30.5q-57 0 -106.5 -25.5t-77.5 -78.5l-17 -33q-4 -16 -14 -33q-20 0 -34.5 -2t-55.5 -16q-45 -12 -76 -41q-31 -25 -50.5 -63.5t-19.5 -92.5z" />
<glyph unicode="+" horiz-adv-x="1255" d="M20 711q0 -82 33 -126t88.5 -63.5t120.5 -25.5l129 -2v-189l6 -20l11 -27q25 -66 79 -99.5t119 -33.5q55 0 115 31q53 31 78 90l12 37l10 28v183l127 2q63 0 117.5 20.5t90.5 65.5t36 129q0 39 -13.5 73.5t-38 67.5t-60.5 53.5t-74 20.5h-185v184l-10 27l-12 39 q-20 57 -76.5 88.5t-116.5 31.5q-59 0 -104 -21.5t-76 -74.5l-23 -41q-12 -25 -12 -43v-188h-59.5t-69.5 -4q-68 0 -121 -23q-53 -18 -87 -64t-34 -126z" />
<glyph unicode="," horiz-adv-x="499" d="M20 49q0 -35 18.5 -68.5t51.5 -56.5q14 -10 27.5 -17t48.5 -19.5t63 -12.5q66 0 121 37q51 39 80 102l4 13l2 10v223l-4 16l-8 21q-20 57 -72.5 89t-115.5 32q-33 0 -72 -11.5t-70 -33t-52.5 -56t-21.5 -73.5v-195z" />
<glyph unicode="-" d="M20 711q0 -25 2.5 -37t13.5 -45t37.5 -61.5t57.5 -49.5q35 -18 76 -18h805q39 0 71.5 17.5t58 48t42.5 69.5q14 43 14 76q0 39 -14 73q-12 39 -39 70t-60.5 49.5t-72.5 18.5h-805q-41 0 -73 -18.5t-57.5 -48.5t-41 -71.5t-15.5 -72.5z" />
<glyph unicode="." horiz-adv-x="499" d="M20 205q0 -88 60 -148q63 -57 149 -57q90 0 148.5 59.5t58.5 149.5t-61.5 148.5t-151.5 58.5q-92 0 -147.5 -60.5t-55.5 -150.5z" />
<glyph unicode="/" horiz-adv-x="1255" d="M20 209q0 -88 62.5 -148.5t148.5 -60.5q45 0 86 14.5t72 51.5l766 1021q18 25 29 58l8 65q0 94 -56.5 154.5t-148.5 60.5q-47 0 -92 -18t-78 -59l-747 -998q-50 -61 -50 -141z" />
<glyph unicode="0" d="M18 588q0 -66 15 -123q23 -106 72 -193.5t125.5 -148t172 -92t205.5 -31.5q94 0 174 23q41 10 81 25t77 40q66 41 127 111q55 68 88 157l29 86q6 23 10 44.5t4 45.5v361q0 29 -2 43t-10 41t-14.5 46t-16.5 46q-31 86 -88 155.5t-128 112.5t-157 65.5t-174 22.5 q-111 0 -203 -30.5t-169.5 -92t-128 -148.5t-74.5 -193q-6 -31 -10.5 -61t-4.5 -62l2 -125zM449 555v315q0 33 15 57.5t37.5 41t46 24t62.5 11.5q27 0 52 -9q29 -6 52 -20t37.5 -35.5t18.5 -56.5v-340q0 -29 -14.5 -50.5t-40.5 -39.5l-51 -23l-52 -8h-32q-18 6 -34 10 t-44 23l-39 43q-10 23 -14 57z" />
<glyph unicode="1" horiz-adv-x="499" d="M20 168q0 -35 17.5 -66.5t52.5 -56.5l68 -33q37 -12 71 -12q29 0 69 12.5t70.5 34t49 54t18.5 67.5v1085q0 37 -18.5 67t-50.5 56q-14 10 -27.5 17.5t-45.5 18.5t-65 11q-31 0 -71.5 -13t-69.5 -34.5t-48.5 -52.5t-19.5 -70v-1085z" />
<glyph unicode="2" d="M20 180q0 -20 2.5 -30.5t15.5 -38t38.5 -53t54.5 -40t66 -18.5h827q35 0 68.5 18.5t56.5 51.5q10 14 17.5 27.5t19.5 48t12 63.5q0 61 -32.5 113.5t-94.5 83.5l-22 8l-15 6h-581v31q2 12 4 14q10 8 14 8l33 10l28 6l25 7l29 2q33 0 51 4q35 0 53 4l31 2l16 2q14 0 21 4 q92 20 170 54t137 88.5t96 130t37 176.5q0 104 -38 181t-98.5 132t-146.5 90t-182 53l-28 4l-27 2h-481q-37 0 -71 -19.5t-56.5 -52t-36 -69.5t-13.5 -70q0 -70 36 -120t104 -80l12 -6l12 -2h434l13 -2l28 -7l33 -6l29 -6l20 -10l23 -8l-6 -6q-27 -14 -62 -25l-69 -10 q-45 0 -70 -4q-39 0 -59 -4q-74 -6 -138 -29q-68 -18 -125 -55t-110 -91q-47 -51 -74 -114l-20 -60q-4 -16 -6 -30.5t-5 -30.5v-328z" />
<glyph unicode="3" d="M20 209q0 -31 12.5 -70t36 -68.5t55.5 -50t73 -20.5h481h18l27 4l27 4q14 0 20 4q90 18 168 55t133 89.5t91 128t36 172.5l-6 75q-4 33 -14 56q-6 27 -23 53l-29 66l-2 6l2 6l9 14l10 17l10 22l12 25q18 41 25 84l6 88q0 84 -29 147q-25 70 -75 123q-45 55 -113 94 t-139 62l-80 20q-47 10 -84 10h-481q-37 0 -71 -19.5t-55.5 -51t-37.5 -68.5q-12 -37 -13 -69q0 -63 34 -116.5t93 -80.5l21 -10l16 -4h434q33 0 74 -13q39 -8 72 -26l-6 -9q-10 -10 -25 -14l-69 -12l-72 -10q-33 0 -39 -4q-72 -16 -113 -77t-41 -130q0 -68 25 -107t70 -67 q37 -20 88 -33l88 -17l67 -8q25 -2 27 -16l-23 -14l-20 -9l-29 -6l-33 -8q-18 0 -28 -4l-13 -2h-434l-16 -6l-21 -8q-57 -25 -94 -80q-33 -56 -33 -117z" />
<glyph unicode="4" horiz-adv-x="1255" d="M20 670q0 -25 19.5 -58.5t44.5 -56.5q16 -14 29 -23q4 -2 31.5 -16t62.5 -18h565v-328l4 -18l10 -25q25 -59 80.5 -93t116.5 -34q57 0 105.5 24.5t78.5 77.5l15 31l10 31v1098l-4 16l-8 20q-25 61 -79 94t-118 33q-63 0 -116.5 -31.5t-80.5 -95.5l-10 -24l-4 -19v-325 h-332v332l-6 14l-8 22q-27 59 -80 93t-117 34q-29 0 -69.5 -13t-69.5 -34.5t-49.5 -54.5t-20.5 -68v-585z" />
<glyph unicode="5" d="M20 211q0 -31 12.5 -70t35 -68.5t57.5 -51t72 -21.5h481l27 2q20 0 28 4q92 16 178 51t147.5 90.5t100.5 135t39 180.5q0 106 -48 191t-126 143q-70 55 -174 90q-59 18 -101 27.5t-94 9.5h-41l-63 2l-62 2l-40 2v76h585l15 4l22 10q59 25 93 79t34 118q0 33 -14.5 71.5 t-35 66t-55 49t-69.5 21.5h-827q-29 0 -61 -16t-60 -45q-20 -20 -41 -57q-10 -29 -15 -64v-561q0 -23 2.5 -33t16.5 -34.5t43 -55.5l61 -45q27 -12 64 -16h448l23 -6l37 -9l26 -10q14 -2 23 -14l-23 -10l-20 -9l-29 -6l-33 -8q-18 0 -28 -4l-13 -2h-434l-12 -4 q-10 -2 -12 -4q-61 -27 -100.5 -78t-39.5 -123z" />
<glyph unicode="6" d="M20 453q0 -121 54.5 -203t136.5 -136.5t192 -86.5q43 -10 102.5 -18.5t104.5 -8.5q51 0 102.5 6t108.5 21q104 25 188.5 81t136.5 143t52 208q0 113 -47 198q-43 86 -118 141.5t-177 90.5q-49 16 -101.5 25.5t-99.5 9.5h-41l-63 2l-62 2l-40 2v12q0 18 18 30.5t43 18.5 l49 8l35 5h61l95 2h96l63 2q33 0 68 24q29 16 49.5 47t32.5 67t12 71q0 31 -13.5 71.5t-33.5 69t-55 48t-72 19.5h-362q-96 0 -185.5 -34.5t-163.5 -96.5q-72 -55 -119 -141t-47 -180v-520zM446 496h216l22 -4l31 -9l18 -6l19 -6l12 -6v-6q-18 -10 -29.5 -14.5t-46.5 -14.5 l-78 -8l-49 2q-27 0 -53.5 7t-42.5 24q-19 12 -19 41z" />
<glyph unicode="7" horiz-adv-x="1255" d="M20 1210q0 -68 37 -120q37 -45 103 -76l12 -6l12 -2h492l-275 -740l-6 -28v-29q0 -88 62.5 -148.5t148.5 -60.5q66 0 120 34t79 99l381 1014l6 35v39q0 33 -13.5 69.5t-35 66t-56 49t-69.5 19.5h-821q-41 0 -74 -19.5t-53.5 -48t-35 -69.5t-14.5 -78z" />
<glyph unicode="8" d="M20 463q0 -123 52.5 -209t135.5 -141.5t193.5 -84t208.5 -28.5q51 0 102.5 6t106.5 21q106 29 188.5 84t136.5 143t54 209q0 68 -24 129q-10 29 -24.5 58.5t-35.5 62.5q33 49 58.5 114.5t25.5 135.5q0 119 -52 203.5t-138 146.5q-80 53 -188.5 82.5t-209.5 29.5 q-51 0 -102 -6t-109 -20q-106 -25 -188 -84q-84 -55 -137.5 -144.5t-53.5 -207.5q0 -72 21.5 -131.5t62.5 -118.5q-39 -57 -61.5 -120.5t-22.5 -129.5zM455 459q12 16 32 24l43 11l45 2h39h58l24 -7l31 -6l16 -6q12 -6 15 -14q0 -12 -23 -21l-47 -12l-49 -6l-29 -2l-82 6 q-36 6 -73 31zM455 967q27 18 71 28l80 9l29 -3l51 -6l49 -12q20 -6 23 -20q-8 -10 -15 -15l-16 -6l-33 -10l-24 -2h-27h-33h-37l-45 2q-29 4 -45 10.5t-28 24.5z" />
<glyph unicode="9" d="M20 967q0 -115 46.5 -197t123.5 -143q72 -51 175 -90q49 -14 101 -24.5t97 -10.5l41 -2l64 -2l63 -2h41v-291q0 -41 18.5 -80t47.5 -68q33 -27 69 -43q43 -14 80 -14q29 0 67 12.5t69.5 35t53 57t21.5 71.5v1073q0 35 -16 62q-14 31 -41 55.5t-58 42.5q-27 12 -59 16 h-483l-23 -2q-18 0 -26 -4l-17 -2l-20 -4q-14 -2 -19 -4l-10 -2q-82 -18 -156.5 -56t-128 -93.5t-87.5 -131t-34 -159.5zM455 967q29 16 73 26l82 13h84h76v-76h-207l-24 2l-33 6l-31 12q-12 7 -20 17z" />
<glyph unicode=":" horiz-adv-x="505" d="M20 211q0 -90 60 -152q63 -59 151 -59t149.5 59.5t61.5 149.5t-60 149.5t-151 59.5q-47 0 -81 -17q-37 -12 -66 -39.5t-46.5 -67.5t-17.5 -83zM20 1212q0 -47 15.5 -81.5t46.5 -65.5q31 -27 67.5 -43t77.5 -16q94 0 154.5 56t60.5 152q0 88 -62.5 148.5t-148.5 60.5 t-148.5 -60.5t-62.5 -150.5z" />
<glyph unicode=";" horiz-adv-x="499" d="M20 37q0 -35 21.5 -63.5t52.5 -51.5q14 -10 27.5 -17t45.5 -18.5t62 -11.5q31 0 70 13.5t67.5 35t49 54t20.5 65.5v205l-2 10q-2 12 -4 14l-2 11l-4 8q-56 127 -201 127q-29 0 -66.5 -12.5t-67.5 -33t-49.5 -51t-19.5 -67.5v-217zM20 1219q0 -86 56 -152q55 -59 147 -59 q90 0 151.5 55t61.5 154q0 88 -59 147q-55 61 -148 61q-88 0 -148.5 -57t-60.5 -149z" />
<glyph unicode="&#x3c;" horiz-adv-x="1255" d="M20 715q0 -37 3.5 -51.5t13.5 -45.5q18 -45 61 -75l793 -525q14 -8 43 -16l49 -2q88 0 148.5 56.5t60.5 148.5q0 29 -2 45t-13.5 55t-56.5 70l-506 338l506 338q43 27 58 75q6 25 10 46.5t4 48.5q0 88 -61.5 146t-147.5 58q-31 0 -49 -4q-27 0 -43 -14l-793 -524 q-37 -27 -57.5 -73t-20.5 -95z" />
<glyph unicode="=" d="M20 461q0 -31 13.5 -70t34 -66.5t51.5 -52.5q35 -20 65 -20h850q33 0 64.5 21.5t52.5 52.5q10 14 17.5 27.5t18.5 45t11 62.5q0 33 -14.5 71.5t-35 67.5t-55 48.5t-69.5 19.5h-827q-37 0 -70 -19.5t-57 -50.5q-20 -31 -37 -68q-13 -36 -13 -69zM20 963q0 -31 12.5 -70 t36 -68.5t55.5 -50t73 -20.5h827q35 0 68.5 18.5t56.5 50.5q10 14 17.5 27.5t17.5 43.5t14 67q0 31 -13.5 69.5t-33.5 65.5q-18 31 -51 51q-14 10 -30.5 16t-35.5 6h-850q-35 0 -63.5 -20.5t-52.5 -52.5q-10 -14 -17.5 -27.5t-19 -44t-11.5 -61.5z" />
<glyph unicode="&#x3e;" horiz-adv-x="1255" d="M20 215q0 -92 55.5 -153.5t149.5 -61.5q35 0 68 7t59 30l744 493q96 66 96 183t-96 180l-744 496q-12 8 -21 12t-40 16l-66 8q-90 0 -149 -61q-55 -61 -56 -154q0 -45 18.5 -91t59.5 -75l496 -331l-496 -332q-37 -25 -57.5 -71t-20.5 -95z" />
<glyph unicode="?" horiz-adv-x="1255" d="M20 1217q0 -74 38 -124.5t102 -78.5l12 -6l12 -2h428q29 0 70 -13l70 -20l12 -6q-10 -16 -39 -25l-59 -10l-66 -8q-31 0 -59.5 -8.5t-56 -29t-52.5 -52.5q-14 -20 -29 -58l-8 -63q0 -45 18.5 -84t48.5 -68t70 -47q47 -14 86 -14q55 0 104.5 6t104.5 22q104 29 184.5 85.5 t131.5 144.5q23 41 37 94t14 111q0 147 -81 255.5t-222 157.5l-105 33q-31 8 -54 12t-54 4h-481q-41 0 -73 -19.5t-56 -49.5q-10 -14 -17.5 -27.5t-19 -45.5t-11.5 -66zM395 213q0 -94 61.5 -153.5t149.5 -59.5t149.5 59.5t61.5 149.5t-60.5 149.5t-150.5 59.5 q-47 0 -82 -17q-37 -12 -65.5 -39.5t-46 -66.5t-17.5 -82z" />
<glyph unicode="@" horiz-adv-x="1509" d="M20 537q0 -82 28 -159t77 -143.5t110.5 -114.5t141.5 -77l86 -31q43 -12 90 -12h598q23 0 53.5 15.5t52.5 37.5l43 51q18 29 19 54v102q0 20 -15.5 48t-40 51.5t-55.5 41.5q-25 18 -47 19h-555q-27 0 -53 8l-51 25q-20 14 -39 39q-10 20 -14 51v334q0 29 13 52t35.5 39.5 t46 23.5t56.5 12h260q29 0 55 -11q27 -6 52.5 -24.5t39 -41t17.5 -57.5v-190h-47l-21 6l-8 23l-4 47q-8 74 -69.5 121t-137.5 47q-31 0 -65.5 -10.5t-69.5 -32.5q-27 -16 -53 -50q-20 -31 -21 -63v-111q0 -35 21.5 -64.5t52.5 -47.5l68 -33l67 -10q37 0 64.5 13t58.5 17 q27 0 49 -16q23 -10 54 -14h297q25 0 55.5 12t60 36.5t48 53.5t22.5 60v260q0 31 -12 77l-25 74q-57 143 -175 228.5t-271 115.5l-23 4l-20 2h-379q-104 0 -197.5 -47t-163 -120.5t-115 -174t-45.5 -200.5v-346zM696 713q0 37 37 37t37 -37q0 -16 -6 -24.5t-27 -12.5 q-41 0 -41 37z" />
<glyph unicode="A" d="M20 186q0 -39 17.5 -72.5t48.5 -59t70 -42.5q37 -12 75 -12q39 0 75 13.5t68 39t52 60t20 73.5v310h326v-310l8 -28l13 -37q20 -57 76.5 -89t117.5 -32q37 0 74 12.5t69.5 39t50 60t17.5 74.5v697q0 31 -2 47t-10 47t-16.5 57.5t-20.5 46.5q-160 344 -537 344 q-193 0 -325.5 -84t-216.5 -260q-23 -49 -36.5 -102t-13.5 -102v-691zM473 930q0 18 16 33l37 22l45 14l39 5q39 0 80 -19q41 -14 62 -55h-279z" />
<glyph unicode="B" horiz-adv-x="1255" d="M20 164q0 -27 16.5 -53.5t41.5 -53.5q16 -16 27.5 -24t33 -18.5t51.5 -14.5h592q29 0 60 10l61 21q141 49 215 166.5t74 267.5q0 131 -59 248q29 55 45 118q6 31 10 60.5t4 66.5q0 145 -71.5 263t-217.5 174l-61 20q-14 4 -27.5 6t-32.5 4h-585q-29 0 -60 -16 q-31 -12 -57.5 -39t-40.5 -51.5t-19 -56.5v-1098zM442 422v74h303q12 -8 17 -13l8 -20q0 -41 -43 -41h-285zM442 930v71h285q43 0 43 -38l-8 -23q-4 -8 -17 -10h-303z" />
<glyph unicode="C" horiz-adv-x="1236" d="M20 524q0 -35 2.5 -51t14.5 -51l39 -96q70 -158 214 -242t316 -84q78 0 155 18.5t146.5 55.5t124.5 92t92 129l35 82q14 47 15 86q0 86 -62.5 146.5t-148.5 60.5q-59 0 -95.5 -18.5t-59 -46t-35.5 -60.5t-32.5 -57.5t-50.5 -45t-82 -20.5q-72 0 -119 44t-47 120v254 q0 72 47.5 116.5t116.5 44.5q51 0 83 -19t48 -46l35 -59q10 -27 37 -60q20 -25 56 -44t98 -19q88 0 149.5 59t61.5 150q0 45 -15 86q-4 16 -14 38.5t-21 40.5q-35 72 -91 129.5t-124.5 94.5t-143.5 55t-159 18q-172 0 -314 -80.5t-216 -244.5l-39 -99q-16 -55 -17 -102v-375 z" />
<glyph unicode="D" d="M20 186q0 -61 45.5 -111.5t106.5 -68.5l12 -4l13 -2h471l16 2q18 0 25 4l32 6l29 6q88 25 165 73t134 115.5t93 152.5t36 178v352q0 106 -41 194q-37 88 -106 158q-63 68 -156 113q-43 23 -86 38t-100 27l-23 4l-18 2h-471q-29 0 -64 -17t-57 -46q-23 -23 -41 -59 q-10 -29 -15 -64v-1053zM449 420v584h81l70 -3q37 0 66 -10q33 -6 57 -28q23 -16 41 -58l4 -12l2 -10v-340q0 -29 -14.5 -50.5t-40.5 -39.5l-51 -23l-52 -8h-32l-50 -2h-51h-30z" />
<glyph unicode="E" horiz-adv-x="1255" d="M20 164q0 -27 16.5 -53.5t41.5 -53.5q16 -16 27.5 -24t33 -18.5t51.5 -14.5h828q35 0 69.5 18.5t57.5 51.5q10 14 17 27.5t18.5 45t11.5 66.5q0 74 -38 124t-101 79l-15 4l-10 4h-586v78h189q37 0 68.5 18.5t60.5 52.5q14 18 25.5 39t17.5 34t10 30.5t4 40.5q0 41 -16 73 q-12 39 -41 70q-25 31 -59.5 51.5t-69.5 20.5h-189v78h586l10 2l15 6q61 29 100 79t39 124q0 31 -13.5 71.5t-34 69t-55 48t-71.5 19.5h-821q-29 0 -60 -16q-31 -12 -57.5 -39t-40.5 -51.5t-19 -56.5v-1098z" />
<glyph unicode="F" horiz-adv-x="1255" d="M20 176q0 -39 18.5 -72.5t51.5 -56.5q14 -10 27.5 -17t45.5 -18.5t68 -11.5q68 0 120 38t81 101l4 13l4 12v334h191l26 8l39 14q57 20 89 76.5t32 116.5q0 55 -31 114q-31 53 -90 78l-39 13l-26 10h-189v78h592l15 4l22 10q57 27 89 77t32 113q0 29 -11.5 68t-32 68.5 t-55 54t-71.5 24.5h-825q-23 0 -33 -2t-31 -14q-35 -16 -55.5 -38.5t-40.5 -59.5q-12 -25 -17 -62v-1073z" />
<glyph unicode="G" d="M20 549q0 -49 12.5 -102.5t37.5 -102.5q74 -166 214 -255t322 -89q147 0 257 46t183.5 131t113.5 206t40 258v18l-2 29v29v20q-2 31 -19.5 67t-43 61.5t-57 42t-66.5 16.5h-297q-41 0 -75 -17.5t-59.5 -47.5t-40 -68.5t-14.5 -77.5q0 -104 62.5 -154.5t163.5 -62.5 q-18 -35 -62 -58q-39 -16 -80 -16q-29 0 -54.5 7t-50 23.5t-42.5 41.5q-10 23 -14 55v328q0 27 13 50t32.5 38.5t52.5 29.5q20 6 53 11h309l9 2l14 6q61 29 100 79t39 124q0 33 -14.5 71.5t-35 66t-55 49t-69.5 21.5h-350q-106 0 -200.5 -46t-165 -122.5t-116 -177 t-45.5 -202.5v-328z" />
<glyph unicode="H" horiz-adv-x="1255" d="M20 164l5 -17l8 -20q25 -61 78 -96q53 -31 118 -31q59 0 112.5 28.5t78.5 86.5l12 32l8 23v326h332v-332l4 -17l10 -20q59 -127 197 -127q29 0 70 13.5t69.5 35t49 54t20.5 67.5v1085q0 37 -18.5 68t-53.5 55q-14 10 -27.5 17.5t-45 18.5t-64.5 11q-135 0 -197 -127 l-10 -22l-4 -14v-332h-332v325l-8 23l-12 33q-25 55 -79.5 84.5t-111.5 29.5q-61 0 -100 -22q-37 -16 -78 -68l-8 -14l-10 -21l-8 -24l-5 -14v-1098z" />
<glyph unicode="I" horiz-adv-x="1255" d="M20 211q0 -111 84 -174q10 -10 41 -23.5t52 -13.5h825q37 0 70 20q33 25 54 53.5t33.5 67.5t12.5 74q0 59 -31 113q-31 47 -90 78l-22 8l-15 6h-211v586h211l15 4l22 10q57 27 89 77t32 113q0 29 -11.5 68t-32 68.5t-55 54t-71.5 24.5h-825q-37 0 -71 -19.5t-56.5 -52 t-36 -69.5t-13.5 -70q0 -70 36 -120t104 -80l12 -6l12 -2h205v-586h-205l-12 -4q-10 -2 -12 -4q-61 -29 -100.5 -79t-39.5 -122z" />
<glyph unicode="J" d="M20 584q0 -125 43 -231.5t123 -185.5t185.5 -123t234.5 -44q195 0 326 83t217 261q18 37 35 96q6 29 10 54.5t4 48.5v700q0 41 -19.5 74t-50 57.5t-70.5 37.5t-71 13q-57 0 -117 -30q-53 -31 -77 -90l-13 -41l-8 -25v-690q0 -33 -16.5 -55.5t-40 -39t-51.5 -24.5l-54 -8 q-59 0 -94 18q-29 18 -45 49l-20 74q0 14 -4.5 36t-10.5 48q-14 66 -74.5 108t-130.5 42q-86 0 -148.5 -60.5t-62.5 -152.5z" />
<glyph unicode="K" horiz-adv-x="1255" d="M20 164l5 -17l8 -20q25 -61 78 -96q53 -31 118 -31q31 0 68 12.5t66.5 35t53 55t23.5 67.5v344l353 -412q43 -49 85 -75.5t105 -26.5q92 0 150.5 59.5t58.5 149.5q0 45 -9 76.5t-40 64.5l-320 375l-6 12v6l326 332q27 27 39 66q8 37 10 45v31q0 88 -59 147 q-55 61 -150 61h-37q-20 -6 -41.5 -10t-44.5 -26l-420 -404v270l-8 23l-12 33q-25 55 -79.5 84.5t-111.5 29.5q-61 0 -100 -22q-37 -16 -78 -68l-8 -14l-10 -21l-8 -24l-5 -14v-1098z" />
<glyph unicode="L" horiz-adv-x="1255" d="M20 176q0 -23 2.5 -33t14.5 -30q16 -35 36.5 -53.5t32 -26.5t33 -18.5t58.5 -14.5h825q37 0 70 20q33 25 54 53.5t33.5 67.5t12.5 74q0 59 -31 113q-31 47 -90 78l-22 8l-15 6h-594v842l-4 10q-2 12 -4 14q-29 61 -79 100t-122 39q-35 0 -73.5 -14t-66.5 -34.5 t-49.5 -55.5t-21.5 -72v-1073z" />
<glyph unicode="M" horiz-adv-x="1509" d="M20 209q0 -88 62.5 -148.5t148.5 -60.5q78 0 138.5 48t72.5 132l7 56l12 86l10 86l8 57l6 12l7 -8l6 -10l43 -82q18 -35 44.5 -63.5t59.5 -45.5q39 -14 90 -14q53 0 90 17.5t69 50t50 71.5l43 90l6 -24l37 -283q10 -82 72.5 -129t138.5 -47q96 0 150.5 62.5t54.5 156.5 v47l-127 1002q0 31 -21.5 63.5t-51 51t-64.5 30.5t-68 12q-51 0 -101 -22.5t-81 -73.5l-195 -387l-190 375q-27 53 -79 80.5t-110 27.5q-76 0 -137 -49t-74 -131l-127 -1016v-20z" />
<glyph unicode="N" d="M20 186q0 -39 17.5 -71.5t48.5 -58t70 -42.5q43 -14 75 -14q55 0 103.5 23.5t79.5 72.5l20 41q12 29 12 43v393l377 -501q29 -39 73 -55.5t91 -16.5q37 0 74 12.5t67.5 37t50 58t19.5 72.5v1063q0 41 -19.5 74t-50 57.5t-70.5 37.5t-71 13q-57 0 -117 -30 q-53 -31 -77 -90l-13 -41l-8 -25v-381l-371 490q-29 37 -74 57t-96 20q-25 0 -37 -2t-44.5 -13t-62.5 -37.5t-48.5 -58.5t-18.5 -75v-1053z" />
<glyph unicode="O" horiz-adv-x="1255" d="M20 514q0 -43 15 -86q8 -31 12 -42t16 -36q31 -86 87.5 -153.5t124 -108.5t157.5 -68q37 -8 84 -14t90 -6q377 0 537 338q16 33 33 88q8 27 12 47.5t4 46.5v385q0 27 -2 43.5t-13.5 58.5t-33.5 80q-158 338 -537 338q-186 0 -327.5 -88t-215.5 -262l-14 -37l-14 -45 l-10 -45l-5 -37v-397zM442 567v291q0 68 51.5 107t112.5 39t112.5 -42t51.5 -110v-279q0 -68 -50 -109.5t-114 -41.5q-61 0 -112.5 39t-51.5 106z" />
<glyph unicode="P" horiz-adv-x="1255" d="M20 176q0 -37 19.5 -70.5t51.5 -55t69 -38.5q37 -12 71 -12q68 0 120 38t81 101l4 13l4 12v334h324l14 2l29 6l33 6l26 8q49 10 93.5 31.5t84.5 58.5q80 68 117 162l8 21l11 32l8 33l4 25v161q0 68 -38 137.5t-99.5 123t-134 87t-138.5 33.5h-585q-35 0 -63 -15t-56 -44 q-16 -16 -23 -25l-18 -30q-12 -25 -17 -62v-1073zM442 930v71h285l23 -4q16 -2 20 -12v-43l-6 -6l-10 -4l-9 -2h-303z" />
<glyph unicode="Q" d="M20 557q0 -43 6.5 -83t22.5 -85q29 -86 79 -154.5t117.5 -121.5t149.5 -80v-45.5t9.5 -66.5t35 -87t66.5 -62.5t106 -23.5q61 0 102.5 22.5t65 61.5t31.5 82t10 59.5t2 53.5l6 6q78 33 144.5 85t115 117.5t79 144.5t30.5 165v338q0 31 -2 47t-9 46t-16.5 58.5t-21.5 48.5 q-160 344 -541 344q-53 0 -97 -6t-93 -22q-88 -25 -164 -82q-76 -53 -129 -131t-80 -176l-18 -68l-7 -70v-315zM449 557v315q0 31 12 54.5t39 44.5q27 16 53 24l57 9q27 0 53.5 -7.5t51 -25t38 -39t17.5 -55.5v-326q0 -33 -14.5 -54.5t-39 -39t-52.5 -25.5l-54 -8h-32 q-18 6 -34 10t-44 23q-20 18 -37 43q-10 23 -14 57z" />
<glyph unicode="R" horiz-adv-x="1255" d="M20 164l5 -17l8 -20q25 -61 78 -96q53 -31 118 -31q63 0 116.5 31.5t80.5 95.5l8 25l6 18v326h305q14 -4 19 -9l8 -16v-307l4 -17l10 -20q59 -127 197 -127q29 0 70 13.5t69.5 35t49 54t20.5 67.5v356q0 47 -21 97l-38 90q14 31 25 60.5t18.5 60t11.5 63.5t4 70 q0 143 -74 258.5t-215 169.5l-61 20q-14 4 -27.5 6t-32.5 4h-585q-29 0 -60 -16q-31 -12 -57.5 -39t-40.5 -51.5t-19 -56.5v-1098zM442 930v71h285q20 0 31.5 -7t11.5 -27l-4 -27q-2 -8 -21 -10h-303z" />
<glyph unicode="S" horiz-adv-x="1255" d="M20 209q0 -31 12.5 -70t37 -69.5t56.5 -50t71 -19.5h585q68 0 139.5 34t132 87t99.5 121q18 35 28.5 68.5t10.5 70.5v162l-4 24l-8 31q-16 59 -47 104q-27 47 -67 87t-92 72t-108 44l-26 6l-33 7l-29 6l-14 4h-297l-12 8q-12 6 -13 27q0 20 11.5 31.5t31.5 11.5h549l15 4 l22 10q57 27 89 77t32 113q0 29 -11.5 68t-32 68.5t-55 54t-71.5 24.5h-590q-35 0 -63 -10l-58 -20q-141 -49 -216 -167t-75 -265q0 -160 88.5 -277t243.5 -166l19 -6l28 -6l31 -8l19 -2h296l7 -4q10 -2 12 -5l6 -6v-43l-10 -8l-8 -4l-25 -8h-543l-12 -4q-10 -2 -12 -4 q-63 -31 -101.5 -81t-38.5 -122z" />
<glyph unicode="T" d="M20 1214q0 -63 33 -112t94 -82l21 -10l16 -4h213v-836l6 -18l11 -25q25 -61 79 -94t117 -33q61 0 113.5 30.5t81.5 96.5l10 20l6 17v842h213l10 2l15 6q61 27 100 78t39 125q0 33 -14.5 71.5t-35 66t-55 49t-69.5 21.5h-827q-37 0 -71 -20.5t-55.5 -52t-37.5 -68.5 q-12 -37 -13 -70z" />
<glyph unicode="U" horiz-adv-x="1255" d="M20 514q0 -35 12.5 -81t30.5 -83q70 -170 215.5 -260t327.5 -90q377 0 537 338q16 33 33 88q8 27 12 47.5t4 46.5v735q0 37 -18.5 68t-53.5 55q-14 10 -27.5 17.5t-45 18.5t-64.5 11q-66 0 -116 -31.5t-81 -95.5l-10 -22l-4 -14v-689q0 -68 -51 -109.5t-115 -41.5 q-29 0 -43 2t-43 14q-41 18 -59 64l-12 39l-9 26v688q0 35 -20.5 65t-53 54.5t-67.5 35.5t-70 15q-55 0 -105 -24.5t-79 -77.5l-16 -31l-9 -30v-748z" />
<glyph unicode="V" horiz-adv-x="1255" d="M20 1184l7 -31l381 -1014q25 -63 77 -101t121 -38q72 0 126 38t79 107l381 1020v15l2 26q0 92 -54.5 155.5t-152.5 63.5q-66 0 -121 -33.5t-80 -99.5l-174 -458l-6 -9l-174 461q-23 61 -76 100t-125 39q-88 0 -149.5 -59t-61.5 -149v-33z" />
<glyph unicode="W" horiz-adv-x="1509" d="M20 1196l127 -1016q10 -80 72 -130t139 -50q57 0 107.5 27.5t81.5 81.5l190 374l195 -387q25 -51 77 -73.5t105 -22.5q82 0 140.5 51t70.5 135l121 967v115l-2 8l-4 10q-27 63 -77 101t-122 38t-135.5 -47t-75.5 -127l-37 -284l-6 -25l-43 88q-18 43 -49 74 q-27 33 -64.5 50t-95.5 17q-53 0 -96 -18q-35 -18 -60.5 -47t-48.5 -76l-45 -88l-6 19l-8 55l-10 86l-12 86l-7 57q-10 82 -71 129q-61 51 -140 51q-86 0 -148.5 -60.5t-62.5 -152.5v-16z" />
<glyph unicode="X" d="M20 211q0 -90 60 -152q63 -59 151 -59q47 0 92.5 18.5t77.5 59.5l205 272h6l6 -6l205 -272q29 -39 73 -55.5t91 -16.5q88 0 149.5 59.5t61.5 149.5v37q-6 18 -10 37.5t-27 48.5l-282 381l282 381q14 20 29 57l8 66q0 88 -62.5 148t-148.5 60q-45 0 -90 -16t-74 -55 l-205 -273l-6 -6h-6l-205 273q-29 37 -73.5 57t-96.5 20q-86 0 -148.5 -60t-62.5 -151q0 -68 43 -127l27 -36l47 -64l58 -78l59 -78l47 -65l27 -35l12 -18l-12 -19l-27 -37l-47 -63l-59 -78l-58 -78l-47 -65l-27 -35q-43 -55 -43 -127z" />
<glyph unicode="Y" horiz-adv-x="1255" d="M20 1014q0 -33 13 -74l24 -70q43 -125 131 -206q80 -73 203 -134v-350l6 -20l11 -27q25 -63 80 -98t118 -35q55 0 115 31q53 31 78 90l12 39l10 26v344q119 53 203 138.5t137 218.5l21 65l10 68v235q0 37 -18.5 68t-53.5 55q-14 10 -27.5 17.5t-45 18.5t-64.5 11 q-74 0 -130 -44t-77 -119v-113q0 -53 -12 -103.5t-48 -83t-110 -32.5h-22q-27 6 -45.5 10t-46.5 23q-23 18 -37.5 45.5t-14.5 60.5v186l-6 19l-8 24q-25 59 -80 93t-117 34q-55 0 -105 -24.5t-79 -77.5l-16 -31l-9 -30v-248z" />
<glyph unicode="Z" horiz-adv-x="1255" d="M20 209q0 -31 12.5 -70t37 -69.5t56.5 -50t71 -19.5h825q25 0 54.5 15.5t53.5 37.5l44 51q18 29 18 54v102q0 20 -15.5 48t-40 51.5t-55.5 41.5q-25 18 -47 19h-377l498 667l23 37q12 20 14 41v103q0 23 -16.5 50.5t-42 51t-53 37.5t-58.5 18h-825q-37 0 -69 -19.5 t-58 -51.5q-20 -31 -37 -68q-12 -37 -13 -69q0 -74 38 -124.5t102 -78.5l12 -6l12 -2h373l-487 -656q-50 -61 -50 -141z" />
<glyph unicode="[" horiz-adv-x="880" d="M20 180q0 -20 2.5 -30.5t15.5 -38t38.5 -53t54.5 -40t64 -18.5h448q35 0 68.5 18.5t57.5 50t36 68.5t12 72q0 74 -36 122t-103 79l-14 6l-11 4h-204v586h204l11 2l14 6q61 27 100 76.5t39 119.5q0 31 -12 72q-4 14 -13.5 33.5t-21.5 36.5q-18 27 -55 53q-35 20 -72 20 h-448q-31 0 -61 -16t-58 -45q-20 -20 -41 -57q-10 -29 -15 -64v-1063z" />
<glyph unicode="\" d="M20 1217q0 -76 50 -142l747 -997q29 -37 74 -57.5t96 -20.5q47 0 82 16.5t64.5 43t47 65.5t17.5 84q0 39 -10 69.5t-33 59.5l-766 1022q-29 35 -73 50t-85 15q-88 0 -149.5 -59t-61.5 -149z" />
<glyph unicode="]" horiz-adv-x="880" d="M20 213q0 -31 12.5 -69t35 -69.5t57.5 -53t70 -21.5h448q27 0 59.5 15.5t53.5 39.5q12 12 23.5 25.5t19.5 28.5q18 29 18 55v1098q0 25 -15.5 51t-45.5 57q-23 23 -52.5 37t-60.5 18h-448q-37 0 -70 -19.5t-54.5 -51t-37.5 -68.5q-12 -37 -13 -69q0 -66 33 -119 q33 -47 94 -78l21 -10l16 -4h211v-586h-211l-16 -6l-21 -11q-57 -25 -92 -76t-35 -114z" />
<glyph unicode="^" d="M20 834q0 -45 15.5 -82t46.5 -68q31 -25 68 -43q43 -14 81 -14q49 0 91.5 17.5t72.5 53.5l205 273l6 6h6l6 -6l205 -273q29 -39 73 -55t91 -16t82 16t64.5 43t47 66t17.5 84v36q-6 18 -10 38t-27 48l-379 508q-66 84 -172 84q-109 0 -174 -84l-379 -508q-23 -25 -30 -59z " />
<glyph unicode="_" horiz-adv-x="1255" d="M20 -43q0 -39 15 -74q12 -39 37.5 -68.5t59.5 -48t75 -18.5h792q41 0 75 17.5t63 50.5q12 14 20 27.5t21 39.5q14 43 14 76q0 39 -13.5 75t-37 66.5t-58 50t-71.5 19.5h-811l-23 -4l-24 -6q-134 -62 -134 -203z" />
<glyph unicode="`" horiz-adv-x="499" d="M20 1055q0 -39 17.5 -71t52.5 -56q14 -10 27.5 -17.5t45.5 -18.5t68 -11q35 0 70 11t64.5 31.5t50 51.5t20.5 63v222l-2 12q-2 10 -4 12q-25 63 -76 101t-123 38q-35 0 -73.5 -14t-66.5 -34.5t-49.5 -55.5t-21.5 -70v-194z" />
<glyph unicode="a" d="M20 193q0 -41 19.5 -78t47.5 -60.5t67 -40.5q18 -6 36.5 -10t40.5 -4q55 0 103.5 23.5t79.5 72.5l20 41q12 29 12 43v316h326v-303q0 -37 18.5 -75t49 -62.5t69.5 -41.5q18 -6 37 -10t41 -4q37 0 74 12.5t67.5 37t50 58t19.5 72.5v709q0 27 -2 43t-12 51t-13.5 47 t-15.5 39q-35 86 -90 152.5t-125 110.5t-155 68.5t-177 24.5q-178 0 -323.5 -87t-214.5 -257q-23 -51 -36.5 -106t-13.5 -111v-671zM471 930q0 20 16 31l41 22l45 14l37 7q39 0 80 -19q41 -14 62 -55h-281z" />
<glyph unicode="b" horiz-adv-x="1255" d="M20 164q0 -29 16.5 -54.5t45.5 -54.5q20 -20 57 -41q27 -10 58 -14h585l31 4l39 10l37 13l31 10q133 53 202.5 169t69.5 253q0 74 -14 129q-12 59 -45 125q29 61 45 121q6 29 10 60.5t4 68.5q0 141 -67.5 253.5t-204.5 172.5l-31 10l-37 12l-39 10l-31 4h-585 q-27 0 -58 -16q-31 -12 -57 -39l-45 -53q-12 -23 -17 -55v-1098zM442 422v74h303q14 0 21 -11l4 -22q0 -41 -43 -41h-285zM442 930v71h285q43 0 43 -38q0 -14 -3 -22.5t-22 -10.5h-303z" />
<glyph unicode="c" d="M20 526q0 -84 29 -157.5t76 -139.5q49 -61 113.5 -112t138.5 -74l86 -31q43 -12 90 -12h471q37 0 69.5 19.5t53 48t37.5 73.5q10 33 14 70q0 61 -34 114.5t-93 80.5l-22 8l-15 6h-428q-25 0 -49 8q-29 6 -50.5 20.5t-37.5 36t-20 52.5v346q0 27 13 48t36.5 38.5t45 24.5 t56.5 12h434l15 4l22 10q59 25 93 79.5t34 117.5q0 33 -13.5 69.5t-36 66t-57 51t-67.5 21.5h-483q-76 0 -153 -29.5t-140.5 -79.5t-109.5 -110.5t-75 -136.5l-30 -86q-12 -43 -13 -90v-367z" />
<glyph unicode="d" d="M20 193q0 -29 13 -64q12 -27 33.5 -52.5t46 -43t59.5 -27.5l12 -4l13 -2h471l30 4l47 8l13 2q10 2 12 4q82 23 162 72t137 112.5t93 147.5t36 182v361q0 41 -6 79t-23 79q-25 80 -75 142t-112 111.5t-140 77.5l-86 29q-20 6 -43 10t-45 4h-471q-33 0 -68 -19.5t-55 -45.5 q-23 -23 -36 -57.5t-18 -69.5v-1040zM449 420v584h81l70 -3q37 0 66 -10q33 -6 55 -28q25 -18 43 -58l4 -10l2 -6v-352q0 -27 -15.5 -46.5t-41.5 -37.5l-51 -23l-50 -8h-32l-50 -2h-51h-30z" />
<glyph unicode="e" horiz-adv-x="1255" d="M20 502l3 -17q0 -14 4 -20q31 -150 122 -261.5t240 -166.5l76 -27q39 -8 52 -9t30 -1h471q39 0 71.5 19.5t55.5 52.5q10 14 17 27.5t18.5 45t11.5 70.5q0 72 -39 119q-35 47 -100 78l-15 4l-10 4h-428q-23 0 -51 10l-45 23l-23 20l-14 16q14 2 53 5.5t83 7.5t94.5 22.5 t86.5 63.5q33 45 33 121q0 82 -33 122q-29 41 -79 64t-115 29l-123 6q4 16 18 31l33 24l39 14l37 7h434l10 2l15 6q61 27 100 76.5t39 119.5q0 37 -12 74q-4 14 -13.5 33.5t-21.5 36.5q-20 29 -55 50t-72 21h-477q-92 0 -176 -36.5t-151 -98t-118 -145.5q-41 -76 -63 -166 l-8 -41l-5 -27v-409z" />
<glyph unicode="f" d="M20 176q0 -37 19.5 -70.5t51.5 -55t69 -38.5q37 -12 71 -12q43 0 80 15.5t69 43t49 64.5t17 82v293h185l26 8l39 14q57 20 90 78q16 31 24.5 56.5t8.5 58.5q0 76 -30.5 118.5t-86.5 67.5q-49 18 -112 25l-123 6q4 18 18 31l37 24l41 14l37 7h434l15 4l22 10q57 25 92 78 t35 116q0 33 -14.5 72t-34 65.5t-55.5 53.5q-35 20 -70 20h-483q-82 0 -156 -28.5t-137.5 -78.5t-112.5 -114q-25 -33 -39 -60.5t-33 -74.5l-30 -86q-12 -43 -13 -90v-717z" />
<glyph unicode="g" d="M20 561q0 -47 13 -102l30 -97q31 -84 85.5 -152.5t127.5 -117.5q68 -41 156 -69q39 -10 84 -16.5t92 -6.5q152 0 261.5 49t182 133t109.5 201t37 258v102q-2 31 -19.5 65t-40 56.5t-57 41t-69.5 18.5h-297q-41 0 -75 -17.5t-59.5 -47.5t-40 -68.5t-14.5 -77.5 q0 -104 62.5 -154.5t163.5 -62.5q-18 -39 -59.5 -56.5t-82.5 -17.5h-32q-18 6 -25 8q-29 10 -51.5 26.5t-38.5 41.5q-10 23 -14 57v315q0 25 14 51.5t32.5 42t47 29t57.5 13.5h309l9 2l14 6q63 27 101 76.5t38 123.5q0 53 -19.5 95.5t-64.5 79.5l-41 22l-49 14h-350 q-106 0 -201.5 -49t-166 -124.5t-115 -179t-44.5 -208.5v-303z" />
<glyph unicode="h" horiz-adv-x="1255" d="M20 164l5 -17l8 -20q25 -61 79 -94t117 -33t116.5 31.5t80.5 95.5l8 25l6 18v326h332v-332l4 -17l10 -20q27 -59 80.5 -93t116.5 -34q29 0 70 13.5t69.5 35t49 54t20.5 67.5v1085q0 37 -18.5 68t-53.5 55q-14 10 -27.5 17.5t-45 18.5t-64.5 11q-66 0 -116 -31.5 t-81 -95.5l-10 -22l-4 -14v-332h-332v325l-6 19l-8 24q-25 59 -80.5 93t-116.5 34q-55 0 -105 -24.5t-79 -77.5l-16 -31l-9 -30v-1098z" />
<glyph unicode="i" horiz-adv-x="499" d="M20 162l3 -10q2 -10 4 -13q25 -63 75 -101t123 -38q31 0 72 12q14 4 33.5 13.5t36.5 21.5q31 25 50 57.5t19 69.5v1073q0 37 -19.5 70t-50 57.5t-68.5 36.5t-73 12q-53 0 -98 -21.5t-76 -70.5l-18 -31q-12 -25 -13 -40v-1098z" />
<glyph unicode="j" d="M20 584q0 -127 44.5 -233.5t123.5 -186.5q74 -74 183.5 -119t236.5 -45q96 0 177 21.5t151 65.5t131 114q53 66 88 155l29 88q14 53 14 93v706q0 41 -19.5 74t-50 57.5t-70.5 37.5t-71 13q-37 0 -77 -13t-68 -42q-29 -23 -49.5 -59.5t-20.5 -77.5v-690q0 -27 -16.5 -49.5 t-40.5 -38.5l-53 -25l-50 -8q-61 0 -89.5 17.5t-49.5 49.5l-20 72q0 37 -17 86q-14 66 -73.5 108t-131.5 42q-86 0 -151 -62q-60 -63 -60 -151z" />
<glyph unicode="k" horiz-adv-x="1255" d="M20 170q0 -37 18.5 -67.5t53.5 -55.5q14 -10 27.5 -17t45.5 -18.5t64 -11.5q63 0 116.5 31.5t80.5 95.5l8 25l6 18v344l353 -412q43 -49 85 -75.5t105 -26.5q90 0 152 61q57 63 57 154q0 80 -49 135l-320 375l-6 12v6l332 338q25 25 33 60l10 69q0 94 -56.5 154.5 t-152.5 60.5h-37q-20 -6 -41.5 -10t-44.5 -26l-420 -410v276l-6 19l-8 24q-25 59 -80.5 93t-116.5 34q-29 0 -69.5 -13t-69.5 -34.5t-49.5 -54.5t-20.5 -68v-1085z" />
<glyph unicode="l" d="M20 532l3 -20q0 -14 4 -23l6 -34l6 -27q23 -82 69 -157.5t113 -139.5q61 -55 146 -96q82 -35 174 -35h483q35 0 68.5 18.5t56.5 51.5q10 14 17.5 27.5t19.5 48t12 63.5q0 63 -35 117q-31 53 -92 80l-22 8l-15 6h-440q-27 0 -49.5 9t-46.5 28l-37 41q-10 20 -15 45v684 q0 41 -18 76.5t-49 64.5q-27 20 -70 41q-18 8 -35.5 12t-42.5 4q-35 0 -73.5 -14t-66.5 -34.5t-49.5 -55.5t-21.5 -72v-717z" />
<glyph unicode="m" horiz-adv-x="1515" d="M20 193q0 -41 19.5 -78t47.5 -60.5t67 -40.5q18 -6 36.5 -10t40.5 -4q55 0 103.5 23.5t79.5 72.5l20 41q12 29 12 43v328l129 -189q27 -35 72 -53q43 -12 90 -12q43 0 87 12.5t73 52.5l129 189v-332l4 -18l10 -25q29 -61 81.5 -97t119.5 -36q41 0 80 15.5t66.5 39 t46 62.5t18.5 82v1028q0 43 -17.5 81t-48.5 60q-14 12 -27 20.5t-36 18.5t-40 14t-42 4q-45 0 -93 -18t-77 -59l-334 -500l-336 500q-27 37 -75 59q-48 18 -95 18q-37 0 -76.5 -13t-68.5 -42q-27 -23 -46.5 -58.5t-19.5 -78.5v-1040z" />
<glyph unicode="n" d="M20 193q0 -41 19.5 -78t47.5 -60.5t67 -40.5q18 -6 36.5 -10t40.5 -4q55 0 103.5 23.5t79.5 72.5l20 41q12 29 12 43v690q0 33 14.5 55.5t40 41t44 23.5t34 8t31.5 6q25 0 49.5 -7.5t50 -24t44 -40t18.5 -49.5v-690q0 -37 18.5 -75t49 -62.5t69.5 -41.5q18 -6 37 -10 t41 -4q37 0 74 12.5t67.5 37t50 58t19.5 72.5v709q0 27 -2 43t-12 51t-13.5 47t-15.5 39q-31 88 -87 154.5t-128 110.5t-157 67.5t-175 23.5q-86 0 -173 -23.5t-159 -70.5q-68 -41 -125 -110.5t-88 -157.5l-30 -98q-12 -49 -13 -101v-671z" />
<glyph unicode="o" horiz-adv-x="1255" d="M20 514q0 -35 12.5 -81t30.5 -83q70 -170 215.5 -260t327.5 -90q184 0 327.5 89t215.5 261l29 82q14 53 14 88v385q0 43 -11.5 80t-16.5 53.5t-15 36.5q-70 170 -215 260q-72 45 -152 67.5t-176 22.5q-186 0 -327.5 -88t-215.5 -262l-14 -37l-14 -45l-10 -45l-5 -37v-397 zM442 567v291q0 66 51.5 106t112.5 40q66 0 115 -41t49 -111v-279q0 -68 -50 -109.5t-114 -41.5q-61 0 -112.5 39t-51.5 106z" />
<glyph unicode="p" d="M20 176q0 -37 19.5 -70.5t51.5 -55t69 -38.5q37 -12 71 -12q37 0 75 14.5t71 41t51 63.5t18 80v299h318q29 0 65 10l74 24q141 49 218 168.5t77 266.5q0 145 -73.5 252.5t-204.5 169.5l-68 26q-33 8 -41 10h-29h-585q-35 0 -63 -15t-56 -44q-16 -16 -23 -25l-18 -30 q-12 -25 -17 -62v-1073zM449 930v74h278l23 -7q16 -2 20 -12v-43l-6 -6l-12 -6h-303z" />
<glyph unicode="q" d="M18 838l2 -123v-146l3 -30q0 -27 4 -35q0 -37 9 -73t30 -81q33 -78 78.5 -136t111.5 -110q57 -42 139 -71q0 -27 2 -53.5t9.5 -64.5t32 -79t66.5 -64.5t107 -23.5q59 0 99.5 22.5t68.5 65.5q23 35 31 78t10 59.5t2 53.5l6 6l76 33q47 23 76 51q84 78 150.5 187.5 t66.5 234.5v350q0 49 -14 92l-29 90q-31 88 -87 154.5t-128 110.5t-157 67.5t-175 23.5q-111 0 -203 -30.5t-169.5 -92t-128 -148.5t-74.5 -193q-6 -31 -10.5 -62t-4.5 -63zM449 557v315q0 33 14 55.5t36.5 40t53.5 27.5l57 9q27 0 52 -9q31 -6 51 -22q20 -10 41 -37 q12 -18 16 -53v-338q0 -29 -14.5 -50.5t-40.5 -39.5l-51 -23l-52 -8h-32q-18 6 -34 10t-44 23l-39 43q-10 23 -14 57z" />
<glyph unicode="r" horiz-adv-x="1255" d="M20 170q0 -37 18.5 -67.5t53.5 -55.5q14 -10 27.5 -17t45.5 -18.5t64 -11.5q63 0 116.5 31.5t80.5 95.5l8 25l6 18v326h305l15 -7q4 -2 7 -6t5 -6v-307l4 -18l10 -25q25 -59 80.5 -93t116.5 -34q29 0 70 13.5t69.5 35t49 54t20.5 67.5v360q0 39 -14 74l-29 72l-8 18 l-8 19l8 18l8 19l10 20l8 21q14 39 21 86l4 90q0 139 -68.5 252.5t-203.5 169.5l-31 10l-37 12l-39 10l-31 4h-585q-31 0 -62 -16q-31 -12 -57 -39q-16 -16 -23 -24q-12 -20 -18 -31q-12 -25 -17 -60v-1085zM442 930v71h285q43 0 43 -38q0 -14 -3 -22.5t-22 -10.5h-303z" />
<glyph unicode="s" d="M20 209q0 -31 12.5 -70t36 -68.5t55.5 -50t73 -20.5h585q39 0 74 10t64 27q133 61 205.5 169.5t72.5 256.5q0 76 -20.5 143.5t-59.5 118.5q-35 53 -89 98t-126 70l-74 22q-41 12 -65 13h-297l-12 8l-6 6v49l12 6l24 9h549l15 4l22 10q57 25 92 78t35 116q0 33 -14.5 72 t-34 65.5t-55.5 53.5q-35 20 -70 20h-592q-35 0 -61 -10l-60 -20q-141 -49 -216 -167t-75 -265q0 -59 4.5 -84t18.5 -66q23 -74 65 -129t105 -102q63 -41 139 -62l25 -6l31 -8l26 -6l15 -2h303l4 -4l8 -5l6 -6v-43l-10 -8l-8 -4l-25 -8h-543l-12 -4q-10 -2 -12 -4 q-63 -31 -101.5 -81t-38.5 -122z" />
<glyph unicode="t" d="M20 1214q0 -63 33 -112t94 -82l21 -10l16 -4h213v-830l2 -14l9 -17q20 -68 76.5 -106.5t127.5 -38.5q68 0 118 36t81 103l6 13l4 12v842h213l10 2l15 6q63 27 101 77t38 123q0 33 -14 70q-4 14 -13.5 33.5t-21.5 36.5q-20 29 -55 50t-70 21h-827q-37 0 -71 -20.5 t-55.5 -52t-37.5 -68.5q-12 -37 -13 -70z" />
<glyph unicode="u" horiz-adv-x="1255" d="M20 520q0 -39 12.5 -85t30.5 -85q70 -170 215.5 -260t327.5 -90q184 0 327.5 89t215.5 261l29 82q14 53 14 88v735q0 37 -18.5 68t-53.5 55q-14 10 -27.5 17.5t-45 18.5t-64.5 11q-63 0 -116.5 -31.5t-80.5 -95.5l-10 -24l-4 -19v-688l-8 -28l-12 -37 q-14 -43 -59.5 -61.5t-86.5 -18.5q-61 0 -114 41q-51 45 -52 110v682l-6 19l-8 24q-25 59 -80.5 93t-116.5 34q-29 0 -69.5 -13t-69.5 -34.5t-49.5 -54.5t-20.5 -68v-735z" />
<glyph unicode="v" d="M20 1186l7 -27l381 -1020q20 -63 75.5 -101t122.5 -38q59 0 113.5 26.5t79.5 88.5l393 1050l4 23l2 26q0 88 -60.5 149.5t-150.5 61.5q-66 0 -120 -33.5t-79 -99.5l-170 -446q-2 -12 -12 -19l-6 13l-174 465q-20 55 -77.5 87.5t-117.5 32.5q-86 0 -148.5 -60.5 t-62.5 -150.5v-28z" />
<glyph unicode="w" horiz-adv-x="1515" d="M20 199q0 -47 17.5 -83t46.5 -61q20 -16 34.5 -24t45.5 -19.5t67 -11.5q45 0 93.5 18.5t76.5 59.5l336 500l334 -500q27 -37 76 -60q47 -18 94 -18q25 0 37 2t45 13.5t62.5 37t48 61.5t18.5 79v1034q0 43 -17.5 81t-48.5 60q-14 12 -27 20.5t-36 18.5t-40 14t-42 4 q-51 0 -101 -22.5t-81 -73.5l-21 -41q-12 -25 -12 -43v-327l-129 188q-27 35 -74 51q-51 14 -86 14q-29 0 -43 -2t-51 -13t-68 -50l-129 -188v333l-6 17l-8 24q-29 61 -81 97t-120 36q-31 0 -44 -3t-35 -13q-39 -12 -68 -41q-12 -12 -23.5 -25.5t-23.5 -35.5 q-16 -39 -17 -80v-1028z" />
<glyph unicode="x" d="M20 209q0 -45 15.5 -82t46.5 -68q31 -25 68.5 -42t80.5 -17q47 0 92.5 18.5t77.5 59.5l205 272h6l6 -6l211 -278q27 -33 72 -52q51 -14 86 -14q88 0 149.5 59.5t61.5 149.5v37q-6 18 -10 37.5t-27 48.5l-57 74q-37 57 -46 68t-38 48l-86 115l-55 76l55 73l86 117l84 115 l57 76q18 25 29 57l8 66q0 88 -62.5 148t-148.5 60q-47 0 -86 -16q-41 -12 -72 -49l-211 -279l-6 -6h-6l-205 273q-29 37 -73.5 57t-96.5 20q-47 0 -83.5 -16t-64.5 -43t-45.5 -66.5t-17.5 -82.5q0 -39 10.5 -70t32.5 -60l27 -36l47 -64l58 -78l59 -78l47 -65l27 -35l12 -18 l-12 -19l-27 -37l-47 -63l-59 -78l-58 -78l-47 -65l-27 -35q-20 -25 -29 -54.5t-11.5 -39.5t-2.5 -35z" />
<glyph unicode="y" horiz-adv-x="1255" d="M20 1020q0 -27 3.5 -54.5t23 -78.5t57.5 -121q39 -61 88.5 -109.5t100.5 -76.5l18 -11l31 -14l29 -16l20 -9v-344l8 -28l15 -37q20 -57 76.5 -89t115.5 -32q39 0 75 13.5t67.5 39t52 60t20.5 73.5v344l19 9l30 16l29 14l21 11l28 18l27 18l78 82l69 99q31 53 50.5 112.5 t19.5 110.5v235q0 37 -18.5 68t-53.5 55q-14 10 -27.5 17.5t-45 18.5t-64.5 11q-80 0 -135 -47q-53 -41 -72 -123v-112q0 -59 -13 -103.5t-49 -77t-108 -32.5q-68 0 -108 31q-35 31 -48.5 77.5t-13.5 104.5v112q-14 78 -72.5 124t-134.5 46q-29 0 -69.5 -13t-69.5 -34.5 t-49.5 -54.5t-20.5 -68v-235z" />
<glyph unicode="z" d="M20 211q0 -31 12.5 -70t35 -68.5t57.5 -51t72 -21.5h827q35 0 68.5 18.5t56.5 51.5q10 14 17.5 27.5t19.5 48t12 63.5q0 61 -32.5 113.5t-94.5 83.5l-22 8l-15 6h-377l498 667q43 55 43 130q0 33 -14.5 71.5t-35 66t-55 49t-69.5 21.5h-827q-37 0 -71 -19.5t-56.5 -52 t-36 -69.5t-13.5 -70q0 -70 36 -120t104 -80l12 -6l12 -2h373l-59 -82l-90 -121l-107 -144l-106 -143l-93 -123l-57 -80q-14 -16 -20 -49z" />
<glyph unicode="{" horiz-adv-x="1134" d="M20 713q0 -53 19.5 -96.5t51.5 -67t81 -39.5q23 -6 46.5 -10t49.5 -4l6 -7q18 -106 67.5 -196t125.5 -158q72 -59 172 -100q100 -35 209 -35q90 0 156.5 55.5t66.5 155.5q0 33 -13.5 69.5t-33.5 61.5q-16 25 -47 45.5t-70 28.5l-51 6l-53 10l-47 19q-16 10 -35 38l-16 31 l-9 35v309q0 47 19.5 73t51.5 39t69 19l71 13q35 6 64.5 23.5t50 45t35 65.5t14.5 72q0 98 -67.5 154.5t-157.5 56.5q-113 0 -209 -34.5t-172 -102.5q-74 -61 -121 -154.5t-70 -203.5q-55 0 -100 -13.5t-75.5 -38t-57.5 -69.5q-20 -41 -21 -96z" />
<glyph unicode="|" horiz-adv-x="505" d="M20 -53q0 -37 18.5 -77t45.5 -63.5t66.5 -41t80.5 -17.5q35 0 71 13.5t68.5 38t52 58t19.5 70.5v1315q0 41 -19.5 74t-50 57.5t-70.5 37.5t-71 13q-37 0 -76.5 -13t-68.5 -42q-12 -12 -23.5 -25.5t-23.5 -35.5q-18 -35 -19 -78v-1284z" />
<glyph unicode="}" horiz-adv-x="1128" d="M20 205q0 -98 68 -154q70 -51 162 -51q111 0 205 38t166.5 102.5t121 153.5t68.5 195l6 7q43 0 93.5 14t83 37.5t53 65.5t20.5 100q0 55 -19.5 95t-51 64.5t-83.5 40.5q-23 4 -32 7q-35 8 -64 10l-24 82q-6 45 -23 82q-33 72 -91 136t-122.5 104t-148.5 65.5t-168 25.5 q-90 0 -155 -54t-65 -150q0 -39 10.5 -73t29 -62.5t49.5 -51.5q29 -16 69 -26l53 -7q31 0 54 -10q25 -6 47 -19.5t39 -41.5l10 -25l8 -24v-332q0 -45 -22 -68q-18 -23 -50 -36t-69 -19l-64 -10q-39 -6 -69.5 -25.5t-52 -48.5t-29.5 -59.5t-10.5 -40.5t-2.5 -37z" />
<glyph unicode="~" horiz-adv-x="1509" d="M20 559q6 -37 23.5 -69.5t46.5 -63.5q27 -23 64 -39q18 -6 36.5 -10t40.5 -4q31 0 65 9t56 28q35 29 60 65q8 14 12 24.5t16 49.5l9 84v90l4 8l2 10l6 7h43l6 -7q10 -16 14 -49q0 -31 4 -47l2 -12l5 -23l6 -26l6 -19q18 -76 62 -136t102 -99q53 -33 131 -60 q33 -8 70.5 -14t74.5 -6q145 0 250.5 65.5t171.5 202.5l25 64q12 37 12 63v242q0 33 -23 61q-16 29 -51 53q-14 10 -27.5 17.5t-44 19t-59.5 11.5q-68 0 -120 -34t-81 -100l-10 -24l-4 -17v-169q0 -16 -14 -25l-25 -6q-20 0 -33 14l-12 37l-2 43l-2 33l-4 20l-8 29 q-18 78 -62.5 137.5t-104 100t-131 62t-145.5 21.5q-119 0 -207 -41q-86 -37 -143 -107.5t-86 -164.5q-27 -100 -27 -205v-94z" />
<glyph unicode="&#xad;" d="M20 711q0 -25 2.5 -37t13.5 -45t37.5 -61.5t57.5 -49.5q35 -18 76 -18h805q39 0 71.5 17.5t58 48t42.5 69.5q14 43 14 76q0 39 -14 73q-12 39 -39 70t-60.5 49.5t-72.5 18.5h-805q-41 0 -73 -18.5t-57.5 -48.5t-41 -71.5t-15.5 -72.5z" />
<glyph unicode="&#xc6;" horiz-adv-x="2015" d="M20 180q0 -39 18.5 -71.5t51.5 -59.5q31 -20 68 -37q37 -12 73 -12q55 0 115 31q53 31 78 90l14 37l8 28v310h326v-310q0 -23 2 -33t14.5 -31.5t18.5 -31.5t22 -29q25 -23 58 -45q27 -12 63 -16h828q35 0 68.5 18.5t56.5 51.5q10 14 17 27.5t19.5 48t12.5 63.5 q0 61 -35 115q-31 53 -92 79l-23 11l-14 6h-584v76l127 2q61 0 119 22q55 18 89 63.5t34 129.5q0 82 -35 125q-29 41 -88 65q-23 8 -51.5 13.5t-67.5 9.5l-127 4v76h584l14 4l23 10q59 25 93 78t34 119q0 33 -14.5 71.5t-35 66t-55.5 49t-69 21.5h-1239q-100 0 -193.5 -47 t-164 -121.5t-116 -175t-45.5 -200.5v-701zM467 930q18 33 55 51q16 8 37 14t41 6h33l51 3h49h35v-74h-301z" />
<glyph unicode="&#x2000;" horiz-adv-x="840" />
<glyph unicode="&#x2001;" horiz-adv-x="1681" />
<glyph unicode="&#x2002;" horiz-adv-x="840" />
<glyph unicode="&#x2003;" horiz-adv-x="1681" />
<glyph unicode="&#x2004;" horiz-adv-x="560" />
<glyph unicode="&#x2005;" horiz-adv-x="420" />
<glyph unicode="&#x2006;" horiz-adv-x="280" />
<glyph unicode="&#x2007;" horiz-adv-x="280" />
<glyph unicode="&#x2008;" horiz-adv-x="210" />
<glyph unicode="&#x2009;" horiz-adv-x="336" />
<glyph unicode="&#x200a;" horiz-adv-x="93" />
<glyph unicode="&#x2010;" d="M20 711q0 -25 2.5 -37t13.5 -45t37.5 -61.5t57.5 -49.5q35 -18 76 -18h805q39 0 71.5 17.5t58 48t42.5 69.5q14 43 14 76q0 39 -14 73q-12 39 -39 70t-60.5 49.5t-72.5 18.5h-805q-41 0 -73 -18.5t-57.5 -48.5t-41 -71.5t-15.5 -72.5z" />
<glyph unicode="&#x2011;" d="M20 711q0 -25 2.5 -37t13.5 -45t37.5 -61.5t57.5 -49.5q35 -18 76 -18h805q39 0 71.5 17.5t58 48t42.5 69.5q14 43 14 76q0 39 -14 73q-12 39 -39 70t-60.5 49.5t-72.5 18.5h-805q-41 0 -73 -18.5t-57.5 -48.5t-41 -71.5t-15.5 -72.5z" />
<glyph unicode="&#x2012;" d="M20 711q0 -25 2.5 -37t13.5 -45t37.5 -61.5t57.5 -49.5q35 -18 76 -18h805q39 0 71.5 17.5t58 48t42.5 69.5q14 43 14 76q0 39 -14 73q-12 39 -39 70t-60.5 49.5t-72.5 18.5h-805q-41 0 -73 -18.5t-57.5 -48.5t-41 -71.5t-15.5 -72.5z" />
<glyph unicode="&#x2013;" horiz-adv-x="1107" d="M20 711q0 -25 2 -37t11.5 -45t33 -61.5t49.5 -49.5q31 -18 67 -18h699q34 0 62.5 17.5t50.5 48t37 69.5q12 43 12 76q0 39 -12 73q-11 39 -34.5 70t-52.5 49.5t-63 18.5h-699q-36 0 -64 -18.5t-50 -48.5t-35.5 -71.5t-13.5 -72.5z" />
<glyph unicode="&#x2014;" horiz-adv-x="2131" d="M20 711q0 -25 4.5 -37t23.5 -45t65 -61.5t100 -49.5q61 -18 132 -18h1400q67 0 123.5 17.5t101 48t74.5 69.5q24 43 24 76q0 39 -24 73q-21 39 -68 70t-105.5 49.5t-125.5 18.5h-1400q-71 0 -126.5 -18.5t-100 -48.5t-71.5 -71.5t-27 -72.5z" />
<glyph unicode="&#x202f;" horiz-adv-x="336" />
<glyph unicode="&#x205f;" horiz-adv-x="420" />
<glyph unicode="&#xe000;" horiz-adv-x="1423" d="M0 0v1423h1423v-1423h-1423z" />
</font>
</defs>
</svg>
