<?xml version="1.0" encoding="utf-8"?>
<!-- Generator: Adobe Illustrator 16.0.3, SVG Export Plug-In . SVG Version: 6.00 Build 0)  -->
<!DOCTYPE svg PUBLIC "-//W3C//DTD SVG 1.1//EN" "http://www.w3.org/Graphics/SVG/1.1/DTD/svg11.dtd">
<svg version="1.1" xmlns="http://www.w3.org/2000/svg" xmlns:xlink="http://www.w3.org/1999/xlink" x="0px" y="0px"
	 width="841.89px" height="595.28px" viewBox="0 0 841.89 595.28" enable-background="new 0 0 841.89 595.28" xml:space="preserve">
<g id="Layer_1">
	
		<radialGradient id="SVGID_1_" cx="419.001" cy="297.6401" r="363.4217" gradientTransform="matrix(1.0046 0 0 1 0 0)" gradientUnits="userSpaceOnUse">
		<stop  offset="0" style="stop-color:#EFF8FD"/>
		<stop  offset="1" style="stop-color:#B8DDF4"/>
	</radialGradient>
	<rect fill="url(#SVGID_1_)" stroke="#231F20" stroke-width="1.0023" stroke-miterlimit="10" width="841.89" height="595.28"/>
</g>
<g id="Layer_4" display="none">
	<g display="inline" opacity="0.3">
		<path fill="#FFFFFF" d="M-22,93c34,0,68,1,101-6c31-7,59-12,90-12c69,0,126,25,190,49c84,32,157,39,240,6c58-24,120-35,182-35
			c21,0,42,0,62,0l6-18c-38-1-76-8-115-5c-49,4-97,16-143,28c-40,11-80,8-120,8c-45-1-88-12-132-23c-47-12-94-35-143-39
			c-41-4-74,4-113,13c-34,8-68,8-102,8"/>
	</g>
</g>
<g id="Layer_3">
	<path fill="#B2D37D" d="M753.5,420c-29.643,0-57.074,4.086-79.455,11.023C657.977,424.086,638.281,420,617,420
		c-20.187,0-38.946,3.676-54.537,9.975C540.747,423.676,514.617,420,486.5,420c-29.643,0-57.074,4.086-79.455,11.022
		C390.977,424.086,371.282,420,350,420c-22.025,0-42.352,4.375-58.716,11.759C268.49,424.375,240.177,420,209.5,420
		c-29.642,0-57.074,4.086-79.455,11.022C113.977,424.086,94.282,420,73,420c-54.124,0-98,26.415-98,59s43.876,59,98,59
		c21.282,0,40.977-4.086,57.045-11.022C152.426,533.914,179.858,538,209.5,538c30.677,0,58.99-4.375,81.784-11.759
		C307.648,533.625,327.975,538,350,538c21.282,0,40.977-4.086,57.045-11.022C429.426,533.914,456.857,538,486.5,538
		c28.117,0,54.247-3.676,75.963-9.975C578.054,534.324,596.813,538,617,538c21.281,0,40.977-4.086,57.045-11.023
		C696.426,533.914,723.857,538,753.5,538c75.387,0,136.5-26.415,136.5-59S828.887,420,753.5,420z"/>
	<radialGradient id="SVGID_2_" cx="421" cy="530" r="333.5184" gradientUnits="userSpaceOnUse">
		<stop  offset="0" style="stop-color:#DCF1CF"/>
		<stop  offset="1" style="stop-color:#BDE585"/>
	</radialGradient>
	<path fill="url(#SVGID_2_)" d="M732,455c-45.414,0-86.168,10.813-114.021,27.951C573.496,457.357,487.188,440,388,440
		c-78.192,0-148.371,10.79-196.376,27.895C168.044,459.731,140.041,455,110,455c-83.947,0-152,36.937-152,82.5S26.053,620,110,620
		c24.846,0,48.292-3.242,69-8.979V615h471v-8.024C673.657,615.219,701.8,620,732,620c83.947,0,152-36.937,152-82.5
		S815.947,455,732,455z"/>
</g>
<g id="Layer_2" display="none">
	<path display="inline" fill="#BD00FF" d="M217.741,431.9c0,0.034-0.005,0.066-0.005,0.1v44.164c0,6.627,5.373,12,12,12H236
		c6.627,0,12-5.373,12-12v-3.834C231.001,469.795,217.84,452.686,217.741,431.9z"/>
	<path display="inline" fill="#BD00FF" d="M236,420h-6.264c-6.594,0-11.941,5.319-11.995,11.9
		c0.099,20.785,13.26,37.895,30.259,40.43V432C248,425.372,242.627,420,236,420z"/>
	<path display="inline" opacity="0.3" fill="#FFFFFF" d="M236,420h-6.264c-6.594,0-11.941,5.319-11.995,11.9
		c0.099,20.785,13.26,37.895,30.259,40.43V432C248,425.372,242.627,420,236,420z"/>
	<path display="inline" fill="#631C30" d="M239.667,446.834c0-2.669-3.358-4.833-7.5-4.833s-7.5,2.164-7.5,4.833
		c0,1.344,0.852,2.559,2.224,3.435c0.742-1.319,2.765-2.268,5.151-2.268c2.452,0,4.526,1,5.215,2.376
		C238.735,449.494,239.667,448.235,239.667,446.834z"/>
	<path display="inline" fill="#D17490" d="M232.042,448.001c-2.386,0-4.409,0.948-5.151,2.268c1.355,0.864,3.218,1.399,5.276,1.399
		c1.967,0,3.752-0.492,5.09-1.291C236.568,449.001,234.494,448.001,232.042,448.001z"/>
	<path display="inline" fill="#00A4D0" d="M346,448.001h-6.264c-6.594,0-11.941,5.319-11.995,11.9c0,0.034-0.005,0.066-0.005,0.1
		v44.164c0,6.627,5.373,12,12,12H346c6.627,0,12-5.373,12-12v-3.834v-40.33C358,453.373,352.627,448.001,346,448.001z"/>
	<path display="inline" opacity="0.3" fill="#FFFFFF" d="M345.998,448.025h-6.264c-6.594,0-11.941,5.319-11.995,11.9
		c0.099,20.785,13.26,37.895,30.259,40.43v-40.33C357.998,453.397,352.625,448.025,345.998,448.025z"/>
	<g display="inline">
		<path fill="#631C30" d="M349.667,474.835c0-2.669-3.358-4.833-7.5-4.833s-7.5,2.164-7.5,4.833c0,1.344,0.852,2.559,2.224,3.435
			c0.742-1.319,2.765-2.268,5.151-2.268c2.452,0,4.526,1,5.215,2.376C348.735,477.495,349.667,476.236,349.667,474.835z"/>
		<path fill="#D17490" d="M342.042,476.002c-2.386,0-4.409,0.948-5.151,2.268c1.355,0.864,3.218,1.399,5.276,1.399
			c1.967,0,3.752-0.492,5.09-1.291C346.568,477.002,344.494,476.002,342.042,476.002z"/>
	</g>
	<path display="inline" fill="#E7007A" d="M458.273,491.028l-19.562-19.562c-1.952-1.953-5.118-1.953-7.07,0l-5.776,5.776
		l-12.137,12.137c-1.953,1.952-1.953,5.118,0,7.071l19.562,19.562c1.953,1.953,5.118,1.953,7.071,0l4.461-4.461l13.452-13.452
		C460.227,496.146,460.227,492.981,458.273,491.028z"/>
	<path display="inline" opacity="0.3" fill="#FFFFFF" d="M458.273,491.028l-19.562-19.562c-1.952-1.953-5.118-1.953-7.07,0
		l-5.776,5.776c-0.987,2.707-1.53,5.604-1.53,8.622c0,12.118,8.634,22.355,20.487,25.687l13.452-13.452
		C460.227,496.146,460.227,492.981,458.273,491.028z"/>
	<g display="inline">
		<path fill="#631C30" d="M443.036,494.521c0-2.669-3.358-4.833-7.5-4.833s-7.5,2.164-7.5,4.833c0,1.344,0.852,2.559,2.224,3.435
			c0.742-1.319,2.766-2.268,5.152-2.268c2.451,0,4.525,1,5.215,2.376C442.105,497.182,443.036,495.923,443.036,494.521z"/>
		<path fill="#D17490" d="M435.412,495.688c-2.387,0-4.41,0.948-5.152,2.268c1.355,0.864,3.219,1.399,5.276,1.399
			c1.968,0,3.753-0.492,5.091-1.291C439.938,496.688,437.863,495.688,435.412,495.688z"/>
	</g>
	<g display="inline">
		<path fill="#D7DF23" d="M239.566,101.054c1.915-1.849,4.19-2.774,6.827-2.774c2.385,0,4.52,0.781,6.402,2.344
			c1.884,1.438,2.981,3.407,3.296,5.906l0.282,2.627l0.565,3.936l0.471,3.939l0.376,2.53l0.282,0.845l2.072-4.049
			c0.69-1.444,1.426-2.604,2.212-3.484c0.784-0.878,1.709-1.601,2.777-2.165c1.318-0.565,2.793-0.848,4.425-0.848
			c1.757,0,3.216,0.268,4.378,0.8c1.161,0.534,2.149,1.303,2.966,2.306c0.941,0.942,1.695,2.072,2.259,3.39l1.978,4.049l0.282-1.125
			l1.695-13.032c0.376-2.436,1.537-4.375,3.483-5.813c1.945-1.437,4.017-2.156,6.214-2.156c2.196,0,4.064,0.581,5.602,1.74
			c1.538,1.159,2.714,2.711,3.531,4.653l0.188,0.469l0.095,0.376v5.266l-5.556,44.377c-0.376,2.571-1.459,4.64-3.248,6.207
			c-1.789,1.566-3.94,2.349-6.45,2.349c-1.632,0-3.248-0.345-4.849-1.036c-1.601-0.69-2.777-1.82-3.531-3.39l-8.945-17.795
			l-8.756,17.23c-0.941,1.633-2.182,2.873-3.72,3.72c-1.539,0.848-3.187,1.271-4.943,1.271c-2.386,0-4.519-0.767-6.403-2.302
			c-1.883-1.536-2.982-3.527-3.295-5.972l-5.838-46.634v-0.753C236.695,105.238,237.651,102.903,239.566,101.054z"/>
		<path fill="#F7941E" d="M320.778,99.639c1.679,0.906,2.899,2.204,3.661,3.891l0.569,1.501l0.381,1.032v14.908h15.253v-15.19
			v-0.656l0.475-1.032c1.901-3.875,4.945-5.813,9.129-5.813c1.014,0,2.011,0.173,2.994,0.518s1.68,0.626,2.092,0.846
			c0.412,0.22,0.84,0.486,1.285,0.799c1.077,0.753,1.901,1.599,2.471,2.54c0.571,0.94,0.856,1.974,0.856,3.101v49.833
			c0,1.064-0.318,2.099-0.951,3.103c-0.634,1.003-1.395,1.833-2.282,2.49c-0.887,0.659-1.964,1.192-3.232,1.599
			c-1.269,0.408-2.346,0.611-3.232,0.611c-4.249,0-7.292-1.945-9.129-5.838l-0.475-0.941v-0.753v-15.253H325.39v14.971l-0.381,1.036
			l-0.569,1.506c-0.762,1.758-1.966,3.076-3.614,3.955s-3.392,1.318-5.229,1.318c-2.029,0-3.867-0.47-5.515-1.411
			c-1.648-1.065-2.853-2.538-3.612-4.418l-0.381-0.94v-0.753v-50.394v-0.659l0.381-1.128l0.475-0.94l0.379-0.658
			c1.269-1.567,2.472-2.601,3.614-3.103c1.203-0.688,2.756-1.034,4.659-1.034C317.371,98.279,319.098,98.732,320.778,99.639z"/>
		<path fill="#F15A29" d="M365.594,148.417c1.192-1.537,2.73-2.746,4.614-3.625c0.062-0.062,0.25-0.125,0.565-0.188l0.565-0.188
			h9.415v-26.874h-9.415l-0.565-0.095l-0.565-0.281c-2.071-0.939-3.658-2.176-4.755-3.711c-1.099-1.535-1.648-3.366-1.648-5.497
			c0-1.001,0.203-2.067,0.612-3.195c0.407-1.127,0.956-2.192,1.648-3.194c0.689-1.001,1.553-1.8,2.589-2.396
			c1.036-0.595,2.118-0.893,3.248-0.893h37.943c1.133,0,2.229,0.376,3.296,1.128c1.067,0.752,1.914,1.582,2.543,2.49
			c0.626,0.909,1.113,1.958,1.46,3.148c0.344,1.19,0.518,2.223,0.518,3.1c0,1.942-0.487,3.681-1.458,5.216
			c-0.975,1.536-2.341,2.709-4.098,3.523l-1.034,0.47l-0.66,0.188h-9.697v26.874h9.697l0.66,0.282l1.034,0.377
			c1.82,0.941,3.202,2.134,4.143,3.578c0.942,1.633,1.413,3.359,1.413,5.179c0,1.068-0.188,2.198-0.564,3.39
			c-0.378,1.193-0.894,2.229-1.554,3.107c-0.66,0.88-1.492,1.695-2.496,2.448c-1.004,0.628-2.069,0.941-3.202,0.941h-37.943
			c-0.628,0-1.412-0.203-2.354-0.612c-0.941-0.407-1.57-0.768-1.884-1.083c-2.574-1.945-3.86-4.613-3.86-8.003
			C363.805,151.822,364.401,149.956,365.594,148.417z"/>
		<path fill="#EE2A7B" d="M435.646,99.221c1.379,0.628,2.508,1.506,3.387,2.636l17.043,22.503v-17.513l0.376-1.129l0.567-1.883
			c0.753-1.82,1.943-3.202,3.578-4.144c1.82-0.941,3.607-1.412,5.365-1.412c0.94,0,2.024,0.205,3.25,0.611
			c1.224,0.408,2.307,0.988,3.247,1.74c0.941,0.752,1.71,1.63,2.307,2.633c0.597,1.003,0.896,2.13,0.896,3.384v48.796
			c0,1.192-0.299,2.304-0.896,3.338c-0.597,1.035-1.365,1.927-2.307,2.679c-0.94,0.753-1.979,1.317-3.107,1.693
			c-1.129,0.377-2.261,0.563-3.39,0.563c-1.443,0-2.842-0.25-4.19-0.753c-1.35-0.501-2.463-1.349-3.342-2.542l-17.324-23.068v18.078
			c0,0.44-0.188,1.099-0.564,1.978l-0.941,1.883c-0.943,1.507-2.15,2.622-3.626,3.343c-1.476,0.723-3.059,1.083-4.756,1.083
			c-1.004,0-2.163-0.219-3.483-0.658c-1.192-0.502-2.258-1.144-3.201-1.928c-0.941-0.782-1.679-1.675-2.213-2.678
			c-0.533-1.003-0.8-2.101-0.8-3.292v-48.326c0-1.315,0.282-2.459,0.849-3.433c0.564-0.971,1.301-1.864,2.212-2.679
			c0.908-0.815,1.867-1.395,2.871-1.739c1.004-0.344,1.696-0.548,2.073-0.611c0.376-0.062,0.94-0.094,1.692-0.094
			C432.789,98.279,434.265,98.594,435.646,99.221z"/>
		<path fill="#00A79D" d="M481.311,148.417c1.19-1.537,2.729-2.746,4.613-3.625c0.062-0.062,0.249-0.125,0.564-0.188l0.565-0.188
			h9.415v-26.874h-9.415l-0.565-0.095l-0.564-0.281c-2.071-0.939-3.657-2.176-4.756-3.711c-1.098-1.535-1.646-3.366-1.646-5.497
			c0-1.001,0.203-2.067,0.612-3.195c0.406-1.127,0.955-2.192,1.647-3.194c0.689-1.001,1.554-1.8,2.589-2.396
			c1.036-0.595,2.118-0.893,3.248-0.893h37.945c1.129,0,2.228,0.376,3.296,1.128c1.065,0.752,1.914,1.582,2.542,2.49
			c0.626,0.909,1.114,1.958,1.459,3.148c0.344,1.19,0.518,2.223,0.518,3.1c0,1.942-0.486,3.681-1.46,5.216
			c-0.973,1.536-2.339,2.709-4.095,3.523l-1.036,0.47l-0.659,0.188h-9.697v26.874h9.697l0.659,0.282l1.036,0.377
			c1.819,0.941,3.201,2.134,4.143,3.578c0.941,1.633,1.412,3.359,1.412,5.179c0,1.068-0.188,2.198-0.564,3.39
			c-0.376,1.193-0.896,2.229-1.554,3.107c-0.658,0.88-1.492,1.695-2.494,2.448c-1.006,0.628-2.073,0.941-3.202,0.941h-37.945
			c-0.628,0-1.412-0.203-2.354-0.612c-0.942-0.407-1.569-0.768-1.883-1.083c-2.575-1.945-3.86-4.613-3.86-8.003
			C479.521,151.822,480.117,149.956,481.311,148.417z"/>
		<path fill="#27AAE1" d="M551.361,99.221c1.379,0.628,2.509,1.506,3.388,2.636l17.043,22.503v-17.513l0.377-1.129l0.565-1.883
			c0.753-1.82,1.944-3.202,3.578-4.144c1.819-0.941,3.608-1.412,5.366-1.412c0.941,0,2.024,0.205,3.249,0.611
			c1.223,0.408,2.307,0.988,3.249,1.74c0.94,0.752,1.709,1.63,2.306,2.633c0.596,1.003,0.894,2.13,0.894,3.384v48.796
			c0,1.192-0.298,2.304-0.894,3.338c-0.597,1.035-1.365,1.927-2.306,2.679c-0.942,0.753-1.979,1.317-3.107,1.693
			c-1.131,0.377-2.262,0.563-3.391,0.563c-1.444,0-2.841-0.25-4.19-0.753c-1.35-0.501-2.464-1.349-3.341-2.542l-17.325-23.068
			v18.078c0,0.44-0.188,1.099-0.566,1.978l-0.94,1.883c-0.942,1.507-2.15,2.622-3.625,3.343c-1.476,0.723-3.061,1.083-4.755,1.083
			c-1.004,0-2.165-0.219-3.484-0.658c-1.193-0.502-2.259-1.144-3.201-1.928c-0.94-0.782-1.681-1.675-2.212-2.678
			c-0.534-1.003-0.8-2.101-0.8-3.292v-48.326c0-1.315,0.282-2.459,0.847-3.433c0.564-0.971,1.302-1.864,2.212-2.679
			s1.867-1.395,2.872-1.739c1.004-0.344,1.695-0.548,2.071-0.611c0.376-0.062,0.942-0.094,1.695-0.094
			C548.504,98.279,549.979,98.594,551.361,99.221z"/>
		<path fill="#1C75BC" d="M641.75,113.579c-1.193,1.54-2.73,2.747-4.614,3.625l-0.658,0.282h-0.376h-14.218
			c-1.006,0.126-1.821,0.283-2.449,0.471c-1.004,0.439-1.805,0.895-2.4,1.366c-0.597,0.47-1.1,1.068-1.507,1.789
			c-0.408,0.722-0.611,1.491-0.611,2.306v15.065c0.125,1.004,0.344,1.852,0.659,2.542c0.564,0.753,1.225,1.382,1.977,1.883
			c0.754,0.503,1.521,0.863,2.308,1.083c0.784,0.22,1.616,0.329,2.495,0.329c1.255,0,2.479-0.25,3.672-0.753
			c1.318-0.69,2.259-1.568,2.825-2.636c-3.077-0.376-5.571-1.333-7.486-2.872c-1.916-1.538-2.871-3.908-2.871-7.109
			c0-1.192,0.219-2.385,0.658-3.578c0.438-1.192,1.052-2.244,1.836-3.155c0.785-0.909,1.695-1.631,2.731-2.165
			c1.035-0.533,2.18-0.8,3.437-0.8h13.651c1.067,0,2.088,0.251,3.061,0.753c0.974,0.503,1.851,1.146,2.638,1.93
			c0.783,0.786,1.443,1.728,1.977,2.825c0.532,1.099,0.831,2.118,0.894,3.06v0.942v1.318l0.095,1.318v0.847
			c0,4.207-0.611,8.161-1.836,11.864c-1.224,3.704-2.965,6.859-5.226,9.462c-2.26,2.606-5.068,4.614-8.426,6.026
			c-3.359,1.412-7.299,2.118-11.817,2.118c-5.587,0-10.53-1.362-14.83-4.09c-4.3-2.726-7.579-6.627-9.839-11.707
			c-0.754-1.503-1.318-3.07-1.694-4.7c-0.377-1.63-0.564-3.197-0.564-4.7v-15.044c0-3.133,0.689-6.235,2.071-9.307
			c1.38-3.072,3.154-5.781,5.319-8.132c2.165-2.351,4.69-4.231,7.579-5.643c2.887-1.409,5.962-2.115,9.227-2.115h16.101
			c1.067,0,2.135,0.329,3.202,0.989c1.066,0.658,1.913,1.412,2.543,2.259c0.626,0.847,1.159,1.868,1.601,3.06
			c0.438,1.193,0.658,2.292,0.658,3.295C643.539,110.143,642.942,112.042,641.75,113.579z"/>
		<path fill="#00A651" d="M205.012,214.041c1.915-1.849,4.19-2.774,6.827-2.774c2.385,0,4.519,0.781,6.402,2.344
			c1.884,1.438,2.981,3.407,3.295,5.906l0.282,2.627l0.565,3.936l0.471,3.939l0.376,2.53l0.282,0.845l2.072-4.049
			c0.69-1.444,1.427-2.604,2.212-3.484c0.784-0.878,1.709-1.601,2.778-2.165c1.318-0.565,2.792-0.848,4.425-0.848
			c1.757,0,3.216,0.268,4.378,0.8c1.161,0.534,2.15,1.303,2.966,2.307c0.941,0.941,1.695,2.072,2.259,3.39l1.978,4.049l0.282-1.125
			l1.695-13.032c0.376-2.436,1.538-4.375,3.484-5.813c1.944-1.437,4.017-2.156,6.214-2.156c2.196,0,4.063,0.581,5.602,1.74
			c1.537,1.159,2.714,2.711,3.531,4.653l0.188,0.47l0.095,0.376v5.266l-5.556,44.377c-0.376,2.571-1.459,4.64-3.248,6.207
			c-1.789,1.566-3.94,2.349-6.451,2.349c-1.632,0-3.248-0.345-4.848-1.036c-1.601-0.69-2.778-1.82-3.531-3.39l-8.945-17.795
			l-8.757,17.23c-0.941,1.633-2.182,2.873-3.72,3.72c-1.538,0.848-3.186,1.271-4.942,1.271c-2.387,0-4.52-0.766-6.403-2.302
			c-1.883-1.536-2.982-3.527-3.295-5.972l-5.838-46.634v-0.753C202.14,218.225,203.096,215.891,205.012,214.041z"/>
		<path fill="#EC008C" d="M273.322,261.405c1.192-1.538,2.73-2.746,4.614-3.626c0.062-0.062,0.25-0.125,0.565-0.188l0.565-0.188
			h9.415v-26.874h-9.415l-0.565-0.095l-0.565-0.281c-2.071-0.939-3.657-2.176-4.755-3.711c-1.099-1.535-1.647-3.366-1.647-5.497
			c0-1.001,0.203-2.067,0.612-3.195c0.407-1.127,0.956-2.192,1.647-3.194c0.689-1.001,1.553-1.8,2.589-2.396
			c1.036-0.595,2.118-0.893,3.248-0.893h37.945c1.13,0,2.228,0.376,3.295,1.128c1.066,0.752,1.914,1.582,2.542,2.49
			c0.626,0.909,1.113,1.958,1.459,3.148c0.344,1.19,0.518,2.223,0.518,3.1c0,1.942-0.487,3.681-1.459,5.216
			c-0.974,1.536-2.34,2.709-4.096,3.523l-1.036,0.471l-0.659,0.187h-9.698v26.874h9.698l0.659,0.282l1.036,0.377
			c1.82,0.941,3.202,2.134,4.143,3.578c0.941,1.633,1.412,3.359,1.412,5.179c0,1.068-0.188,2.198-0.564,3.39
			c-0.377,1.193-0.895,2.229-1.554,3.107c-0.66,0.88-1.492,1.695-2.496,2.448c-1.004,0.628-2.071,0.941-3.201,0.941H279.63
			c-0.628,0-1.412-0.203-2.354-0.612c-0.941-0.407-1.57-0.768-1.884-1.083c-2.574-1.945-3.86-4.613-3.86-8.003
			C271.533,264.81,272.129,262.943,273.322,261.405z"/>
		<path fill="#8DC63F" d="M343.374,212.208c1.38,0.628,2.51,1.506,3.39,2.637l17.042,22.502v-17.513l0.377-1.129l0.564-1.883
			c0.753-1.82,1.945-3.202,3.579-4.143c1.82-0.942,3.608-1.412,5.367-1.412c0.941,0,2.024,0.205,3.248,0.611
			c1.224,0.408,2.307,0.988,3.249,1.74c0.941,0.752,1.709,1.63,2.307,2.633c0.595,1.003,0.895,2.13,0.895,3.384v48.796
			c0,1.192-0.299,2.304-0.895,3.338c-0.598,1.035-1.366,1.927-2.307,2.679c-0.941,0.753-1.977,1.317-3.107,1.693
			c-1.13,0.377-2.26,0.563-3.389,0.563c-1.445,0-2.841-0.25-4.19-0.753c-1.351-0.501-2.465-1.349-3.343-2.542l-17.325-23.068v18.079
			c0,0.439-0.188,1.099-0.564,1.977l-0.941,1.883c-0.941,1.507-2.151,2.622-3.625,3.343c-1.476,0.723-3.06,1.083-4.755,1.083
			c-1.005,0-2.166-0.219-3.484-0.658c-1.193-0.502-2.259-1.144-3.202-1.928c-0.941-0.782-1.68-1.675-2.212-2.678
			c-0.534-1.003-0.8-2.101-0.8-3.292v-48.326c0-1.315,0.282-2.459,0.848-3.433c0.565-0.971,1.302-1.863,2.213-2.679
			c0.909-0.815,1.867-1.395,2.872-1.739c1.003-0.344,1.695-0.548,2.071-0.611c0.377-0.062,0.942-0.094,1.695-0.094
			C340.517,211.267,341.992,211.581,343.374,212.208z"/>
		<path fill="#F9ED32" d="M439.318,226.566c-1.193,1.54-2.73,2.747-4.612,3.625l-0.662,0.282h-0.47h-26.928v3.578h8.663
			c1.067,0,2.135,0.315,3.201,0.942c1.067,0.627,1.978,1.412,2.731,2.353c0.878,0.941,1.505,2.01,1.882,3.202
			c0.503,1.005,0.754,2.134,0.754,3.39c0,0.691-0.063,1.303-0.188,1.836c-0.128,0.534-0.283,1.005-0.472,1.412
			c-0.188,0.409-0.454,0.927-0.8,1.554c-0.346,0.628-0.737,1.225-1.176,1.789c-0.881,1.068-1.807,1.883-2.778,2.448
			c-0.975,0.565-2.025,0.847-3.154,0.847h-8.663v3.578h26.928h0.47l0.662,0.189c1.943,0.889,3.497,2.108,4.658,3.662
			c1.161,1.553,1.742,3.47,1.742,5.752c0,1.077-0.172,2.107-0.516,3.09c-0.348,0.983-0.63,1.68-0.851,2.091
			c-0.221,0.412-0.486,0.84-0.798,1.285c-0.69,1.015-1.57,1.807-2.637,2.377c-1.067,0.571-2.135,0.855-3.202,0.855h-38.039
			c-0.941-0.125-1.742-0.345-2.4-0.658c-0.659-0.313-1.162-0.596-1.505-0.846c-0.347-0.25-0.771-0.627-1.271-1.129
			c-0.754-0.815-1.382-1.63-1.885-2.445c-0.502-0.815-0.752-1.63-0.752-2.445v-50.394c0.125-1.003,0.408-1.88,0.847-2.633
			c0.439-0.751,1.067-1.534,1.885-2.349c0.814-0.815,1.693-1.411,2.635-1.787c0.942-0.5,1.851-0.752,2.73-0.752h37.757
			c1.131,0,2.229,0.298,3.296,0.895c1.067,0.597,1.914,1.334,2.543,2.212c0.626,0.88,1.146,1.946,1.554,3.202
			c0.405,1.256,0.61,2.353,0.61,3.294C441.106,223.13,440.509,225.029,439.318,226.566z"/>
		<path fill="#C49A6C" d="M491.48,226.566c-1.194,1.54-2.731,2.747-4.614,3.625l-0.659,0.282h-0.376h-14.218
			c-1.005,0.126-1.821,0.283-2.448,0.471c-1.004,0.439-1.806,0.895-2.4,1.366c-0.598,0.47-1.1,1.068-1.507,1.789
			c-0.409,0.722-0.611,1.491-0.611,2.306v15.065c0.124,1.005,0.344,1.852,0.658,2.542c0.564,0.753,1.225,1.382,1.977,1.883
			c0.755,0.503,1.521,0.864,2.309,1.083c0.783,0.22,1.615,0.329,2.494,0.329c1.255,0,2.479-0.25,3.672-0.753
			c1.318-0.69,2.26-1.568,2.825-2.636c-3.076-0.376-5.571-1.333-7.486-2.872c-1.916-1.538-2.871-3.908-2.871-7.109
			c0-1.192,0.219-2.385,0.659-3.578c0.438-1.192,1.051-2.244,1.836-3.155c0.784-0.909,1.694-1.631,2.73-2.165
			c1.035-0.533,2.181-0.8,3.438-0.8h13.651c1.066,0,2.087,0.251,3.061,0.753c0.973,0.502,1.851,1.146,2.637,1.93
			c0.783,0.786,1.443,1.728,1.978,2.825c0.531,1.099,0.83,2.118,0.894,3.06v0.942v1.318l0.094,1.318v0.847
			c0,4.207-0.611,8.161-1.836,11.864c-1.223,3.704-2.965,6.859-5.226,9.463c-2.26,2.605-5.068,4.613-8.426,6.026
			c-3.359,1.412-7.299,2.118-11.817,2.118c-5.587,0-10.53-1.362-14.83-4.089c-4.3-2.727-7.579-6.628-9.838-11.707
			c-0.755-1.503-1.319-3.07-1.695-4.7s-0.564-3.197-0.564-4.7v-15.044c0-3.133,0.689-6.235,2.071-9.307
			c1.38-3.072,3.154-5.781,5.319-8.132c2.166-2.351,4.69-4.231,7.579-5.642c2.888-1.41,5.962-2.115,9.228-2.115h16.1
			c1.067,0,2.135,0.329,3.202,0.989c1.067,0.658,1.914,1.412,2.543,2.259c0.626,0.847,1.159,1.868,1.601,3.061
			c0.438,1.193,0.658,2.292,0.658,3.294C493.269,223.13,492.672,225.029,491.48,226.566z"/>
		<path fill="#662D91" d="M515.772,211.971c1.065,0.344,2.102,0.893,3.107,1.645c1.003,0.752,1.82,1.582,2.447,2.489
			c0.626,0.91,0.942,1.896,0.942,2.961v31.571l0.377,1.222l0.563,1.785c0.564,1.378,1.475,2.349,2.731,2.913
			c0.878,0.376,1.538,0.596,1.978,0.658c0.438,0.063,1.097,0.094,1.977,0.094c1.945,0,3.703-0.642,5.273-1.926
			c1.568-1.285,2.353-2.96,2.353-5.027v-31.571v-0.659l0.476-1.033c0.95-1.942,2.202-3.398,3.756-4.369
			c1.555-0.972,3.345-1.457,5.374-1.457c1.014,0,2.011,0.174,2.994,0.518c0.982,0.345,1.679,0.627,2.09,0.846
			c0.412,0.22,0.841,0.486,1.285,0.799c1.077,0.753,1.9,1.599,2.472,2.54c0.57,0.94,0.856,1.974,0.856,3.101v33.754
			c0,0.815-0.063,1.536-0.188,2.162c-0.127,0.627-0.314,1.348-0.564,2.163c-0.503,1.693-1.006,3.041-1.507,4.043
			c-4.896,10.342-13.121,15.513-24.669,15.513c-5.587,0-10.608-1.378-15.065-4.137c-4.457-2.757-7.753-6.738-9.885-11.94
			c-0.566-1.129-1.037-2.398-1.413-3.808c-0.376-1.409-0.564-2.648-0.564-3.715v-34.317l0.376-1.41l0.753-1.411
			c0.879-1.628,2.086-2.819,3.625-3.572c1.537-0.751,3.154-1.128,4.85-1.128C513.638,211.393,514.704,211.627,515.772,211.971z"/>
		<path fill="#9E1F63" d="M560.684,266.174l5.838-46.634c0.376-2.507,1.507-4.512,3.39-6.017s3.984-2.257,6.308-2.257
			c1.756,0,3.437,0.422,5.037,1.267c1.601,0.844,2.81,2.079,3.625,3.703l8.757,17.157l8.944-17.721
			c0.942-1.562,2.182-2.687,3.719-3.375c1.538-0.687,3.092-1.031,4.661-1.031c1.004,0,2.039,0.188,3.107,0.564
			c1.067,0.377,2.056,0.846,2.967,1.409c0.908,0.565,1.695,1.348,2.354,2.351c0.658,1.004,0.987,1.975,0.987,2.915l5.839,45.976
			v2.163c0,2.883-0.834,5.282-2.496,7.192c-1.664,1.913-3.971,2.868-6.92,2.868c-2.323,0-4.441-0.721-6.355-2.165
			c-1.915-1.444-3.029-3.421-3.342-5.932l-1.695-12.994l-0.282-1.13l-1.977,4.143c-0.566,1.193-1.335,2.292-2.309,3.295
			c-0.973,1.005-2.023,1.774-3.152,2.307c-1.131,0.534-2.513,0.8-4.145,0.8c-1.569,0-2.95-0.22-4.142-0.659
			c-1.006-0.502-1.916-1.192-2.731-2.071c-0.816-0.878-1.507-1.851-2.071-2.919l-1.978-3.766l-0.282-0.471l-0.282-0.376
			l-0.282,0.565l-0.377,2.636l-0.471,3.954l-0.564,3.955l-0.282,2.542c-0.378,2.574-1.492,4.599-3.343,6.072
			c-1.853,1.476-3.972,2.213-6.356,2.213c-2.636,0-4.912-0.924-6.826-2.773c-1.915-1.849-2.871-4.122-2.871-6.817V266.174z"/>
		<path fill="#FBB040" d="M631.818,261.35c1.159-1.553,2.713-2.805,4.659-3.757c0.062-0.062,0.25-0.125,0.564-0.189h0.566h24.95
			l1.131-0.397l0.376-0.199l0.471-0.398v-2.086l-0.282-0.298c-0.063-0.065-0.251-0.131-0.564-0.199h-0.284h-13.651h-0.848
			l-1.413-0.376l-1.316-0.283l-0.849-0.282c-4.77-1.507-8.507-4.049-11.204-7.627c-2.7-3.578-4.048-7.815-4.048-12.71
			c0-4.52,1.144-8.583,3.435-12.193c2.292-3.609,5.604-6.167,9.935-7.674l2.637-0.942c0.878-0.313,1.851-0.47,2.918-0.47h27.118
			c1.129,0,2.227,0.379,3.295,1.135c1.066,0.757,1.914,1.594,2.542,2.508c0.626,0.916,1.114,1.972,1.46,3.169
			c0.344,1.2,0.518,2.239,0.518,3.123c0,1.957-0.487,3.707-1.46,5.251c-0.974,1.545-2.339,2.728-4.096,3.547l-1.036,0.474h-0.658
			h-25.233c-0.629,0-1.116,0.174-1.46,0.519c-0.346,0.345-0.518,0.833-0.518,1.459c0,0.627,0.188,1.036,0.564,1.224l0.564,0.376
			h13.653h0.658l1.319,0.285l1.506,0.284l1.225,0.284c1.695,0.378,3.343,1.056,4.942,2.033c1.601,0.977,3.014,2.08,4.237,3.31
			c1.225,1.23,2.243,2.569,3.061,4.019c0.941,1.388,1.663,2.996,2.166,4.823l0.376,1.418l0.188,1.136v7.47
			c0,1.135-0.158,2.223-0.471,3.263c-0.314,1.041-0.754,2.098-1.318,3.168c-1.194,2.081-2.716,3.942-4.566,5.581
			c-1.852,1.639-3.877,2.979-6.073,4.019c-2.198,1.041-4.331,1.56-6.403,1.56h-26.928c-1.194,0-2.275-0.3-3.249-0.903
			c-0.974-0.602-1.836-1.378-2.589-2.329c-0.754-0.95-1.318-2.028-1.694-3.233c-0.376-1.203-0.564-2.282-0.564-3.232
			C630.076,264.788,630.655,262.903,631.818,261.35z"/>
	</g>
	<path display="inline" fill="#FFFFFF" d="M368.042,382.5c-19.537,0-35.375,12.872-35.375,28.75c0,12.108,9.214,22.461,22.25,26.698
		V445l8.508-5.251c1.512,0.16,3.051,0.252,4.617,0.252c19.537,0,35.375-12.872,35.375-28.751
		C403.417,395.372,387.579,382.5,368.042,382.5z"/>
	<path display="inline" fill="#FFFFFF" d="M464.73,413.75c-19.037,0-34.471,11.92-34.471,26.625c0,10.015,7.161,18.732,17.74,23.278
		v6.349l6.547-4.185c3.219,0.769,6.639,1.183,10.184,1.183c19.037,0,34.47-11.92,34.47-26.625S483.768,413.75,464.73,413.75z"/>
	<path display="inline" fill="#2BB673" d="M593.918,465.415l-19.562-19.562c-1.952-1.953-5.118-1.953-7.07,0l-5.776,5.776
		l-12.138,12.137c-1.952,1.952-1.953,5.118,0,7.071l19.562,19.562c1.953,1.953,5.118,1.953,7.071,0l4.461-4.461l13.452-13.452
		C595.871,470.533,595.871,467.368,593.918,465.415z"/>
	<path display="inline" opacity="0.3" fill="#FFFFFF" d="M593.918,465.415l-19.562-19.562c-1.952-1.953-5.118-1.953-7.07,0
		l-5.776,5.776c-0.987,2.707-1.53,5.604-1.53,8.622c0,12.118,8.634,22.355,20.487,25.687l13.452-13.452
		C595.871,470.533,595.871,467.368,593.918,465.415z"/>
	<g display="inline">
		<path fill="#631C30" d="M578.681,468.908c0-2.669-3.358-4.833-7.5-4.833s-7.5,2.164-7.5,4.833c0,1.344,0.852,2.559,2.224,3.435
			c0.742-1.319,2.766-2.268,5.152-2.268c2.451,0,4.525,1,5.215,2.376C577.75,471.568,578.681,470.31,578.681,468.908z"/>
		<path fill="#D17490" d="M571.057,470.075c-2.387,0-4.41,0.948-5.152,2.268c1.355,0.864,3.219,1.399,5.276,1.399
			c1.968,0,3.753-0.492,5.091-1.291C575.582,471.075,573.508,470.075,571.057,470.075z"/>
	</g>
	<path display="inline" fill="#FFFFFF" d="M600.375,388.137c-19.037,0-34.471,11.92-34.471,26.625
		c0,10.015,7.161,18.732,17.74,23.278v6.349l6.547-4.185c3.219,0.769,6.639,1.183,10.184,1.183c19.037,0,34.47-11.92,34.47-26.625
		S619.412,388.137,600.375,388.137z"/>
	<path display="inline" fill="#FFFFFF" d="M277.417,374c0-17.673-16.901-32-37.75-32s-37.75,14.327-37.75,32
		c0,16.516,14.763,30.106,33.712,31.815l1.694,6.185l6.926-6.243C262.935,403.839,277.417,390.357,277.417,374z"/>
	<path display="inline" fill="#F9ED32" d="M680.266,480.92h-6.264c-6.594,0-11.941,5.319-11.996,11.9c0,0.034-0.004,0.066-0.004,0.1
		v44.164c0,6.627,5.372,12,12,12h6.264c6.627,0,12-5.373,12-12v-3.834v-40.33C692.266,486.292,686.893,480.92,680.266,480.92z"/>
	<path display="inline" opacity="0.3" fill="#FFFFFF" d="M680.264,480.92H674c-6.594,0-11.941,5.319-11.996,11.9
		c0.1,20.785,13.261,37.895,30.26,40.43v-40.33C692.264,486.292,686.891,480.92,680.264,480.92z"/>
	<path display="inline" fill="#631C30" d="M683.932,507.754c0-2.669-3.357-4.833-7.5-4.833c-4.142,0-7.5,2.164-7.5,4.833
		c0,1.344,0.852,2.559,2.225,3.435c0.742-1.319,2.766-2.268,5.151-2.268c2.452,0,4.526,1,5.215,2.376
		C683.001,510.414,683.932,509.155,683.932,507.754z"/>
	<path display="inline" fill="#D17490" d="M676.308,508.921c-2.386,0-4.409,0.948-5.151,2.268c1.355,0.864,3.219,1.399,5.275,1.399
		c1.968,0,3.753-0.492,5.091-1.291C680.834,509.921,678.76,508.921,676.308,508.921z"/>
	<path display="inline" fill="#FFFFFF" d="M721.682,434.92c0-17.673-16.9-32-37.75-32c-20.848,0-37.75,14.327-37.75,32
		c0,16.516,14.764,30.106,33.713,31.815l1.693,6.185l6.926-6.243C707.2,464.759,721.682,451.277,721.682,434.92z"/>
	<path display="inline" fill="#662D91" d="M483,539.535c0-4.768,1.249-9.271,3.46-13.27c-11.724,2.451-20.46,11.875-20.46,23.134
		c0,13.122,11.864,23.761,26.5,23.761c5.885,0,11.32-1.723,15.718-4.633C493.736,565.299,483,553.546,483,539.535z"/>
	<path display="inline" fill="#662D91" d="M519,549.399c0-13.123-11.864-23.762-26.5-23.762c-2.079,0-4.099,0.222-6.04,0.628
		c-2.211,3.998-3.46,8.502-3.46,13.27c0,14.011,10.736,25.764,25.218,28.992C514.757,564.2,519,557.245,519,549.399z"/>
	<path display="inline" opacity="0.3" fill="#FFFFFF" d="M519,549.399c0-13.123-11.864-23.762-26.5-23.762
		c-2.079,0-4.099,0.222-6.04,0.628c-2.211,3.998-3.46,8.502-3.46,13.27c0,14.011,10.736,25.764,25.218,28.992
		C514.757,564.2,519,557.245,519,549.399z"/>
	<g display="inline">
		<path fill="#631C30" d="M499,552.993c0-2.669-3.358-4.833-7.5-4.833s-7.5,2.164-7.5,4.833c0,1.344,0.852,2.559,2.224,3.435
			c0.742-1.319,2.766-2.268,5.152-2.268c2.451,0,4.525,1,5.215,2.376C498.069,555.653,499,554.395,499,552.993z"/>
		<path fill="#D17490" d="M491.376,554.16c-2.387,0-4.41,0.948-5.152,2.268c1.355,0.864,3.219,1.399,5.276,1.399
			c1.968,0,3.753-0.492,5.091-1.291C495.901,555.16,493.827,554.16,491.376,554.16z"/>
	</g>
	<path display="inline" fill="#FFFFFF" d="M528.284,472.49c-17.504,0-31.694,12.028-31.694,26.865
		c0,8.382,4.531,15.866,11.628,20.793v6.071l6.996-2.393c3.986,1.532,8.408,2.393,13.07,2.393c17.505,0,31.694-12.027,31.694-26.864
		S545.789,472.49,528.284,472.49z"/>
</g>
</svg>
