<?xml version="1.0" encoding="utf-8"?>
<!-- Generator: Adobe Illustrator 16.0.3, SVG Export Plug-In . SVG Version: 6.00 Build 0)  -->
<!DOCTYPE svg PUBLIC "-//W3C//DTD SVG 1.1//EN" "http://www.w3.org/Graphics/SVG/1.1/DTD/svg11.dtd">
<svg version="1.1" id="Layer_1" xmlns="http://www.w3.org/2000/svg" xmlns:xlink="http://www.w3.org/1999/xlink" x="0px" y="0px"
	 width="125px" height="125px" viewBox="0 0 125 125" enable-background="new 0 0 125 125" xml:space="preserve">
<g id="Layer_1_1_">
	<circle fill="#C4161C" cx="62.5" cy="62.5" r="62.5"/>
	<g>
		<path fill="#FFFFFF" d="M70.822,41.757h-8.27l-7.945,22.848h-0.05l-6.105-17.671c-0.653-3.3-3.83-5.218-7.656-5.218
			c-3.809,0-6.976,1.898-7.646,5.179h-0.019l-6.056,17.71h-0.051l-7.98-22.848h-8.221l8.976,25.32h0.034
			c1.092,2.679,3.899,4.586,7.192,4.586c3.293,0,6.101-1.907,7.191-4.586h0.047l6.496-18.888l6.609,18.888h0.059
			c1.09,2.679,3.899,4.586,7.19,4.586c3.73,0,6.837-2.441,7.535-5.685L70.822,41.757z"/>
		<path fill="#FFFFFF" d="M79.547,71.682V49.513h26.397v22.168h7.879c0,0,0-12.385,0-20.845c0-8.497-8.371-9.14-9.468-9.14
			c-1.096,0-32.628,0-32.628,0v29.985H79.547L79.547,71.682z"/>
	</g>
	<rect x="10.207" y="76.937" fill="none" width="103.255" height="6.078"/>
	
		<text transform="matrix(1 0 0 1 10.2065 82.8965)" fill="#FFFFFF" font-family="'Helvetica'" font-size="8.2903" letter-spacing="5">MULTIMEDI</text>
	<text transform="matrix(1 0 0 1 107.9336 82.8965)" fill="#FFFFFF" font-family="'Helvetica'" font-size="8.2903">A</text>
</g>
<g id="Layer_1_copy">
	<circle fill="#C4132A" cx="62.5" cy="62.5" r="62.5"/>
	<g>
		<path fill="#FFFFFF" d="M70.822,41.757h-8.27l-7.945,22.848h-0.05l-6.105-17.671c-0.653-3.3-3.83-5.218-7.656-5.218
			c-3.809,0-6.976,1.898-7.646,5.179h-0.019l-6.056,17.71h-0.051l-7.98-22.848h-8.221l8.976,25.32h0.034
			c1.092,2.679,3.899,4.586,7.192,4.586c3.293,0,6.101-1.907,7.191-4.586h0.047l6.496-18.888l6.609,18.888h0.059
			c1.09,2.679,3.899,4.586,7.19,4.586c3.73,0,6.837-2.441,7.535-5.685L70.822,41.757z"/>
		<path fill="#FFFFFF" d="M79.547,71.682V49.513h26.397v22.168h7.879c0,0,0-12.385,0-20.845c0-8.497-8.371-9.14-9.468-9.14
			c-1.096,0-32.628,0-32.628,0v29.985H79.547L79.547,71.682z"/>
	</g>
	<g>
		<path fill="#FFFFFF" d="M10.817,76.51h1.252l1.856,5.458l1.843-5.458h1.244v6.455h-0.835v-3.81c0-0.132,0.003-0.351,0.009-0.655
			s0.009-0.631,0.009-0.979l-1.843,5.444h-0.866l-1.86-5.444v0.197c0,0.158,0.004,0.399,0.013,0.723
			c0.009,0.324,0.013,0.562,0.013,0.715v3.81h-0.834L10.817,76.51L10.817,76.51z"/>
		<path fill="#FFFFFF" d="M24.718,76.51v3.99c0,0.469,0.088,0.858,0.266,1.169c0.262,0.468,0.706,0.703,1.328,0.703
			c0.747,0,1.255-0.254,1.524-0.761c0.144-0.275,0.217-0.646,0.217-1.112V76.51h0.883v3.625c0,0.794-0.107,1.405-0.321,1.833
			c-0.394,0.779-1.138,1.169-2.231,1.169s-1.835-0.39-2.227-1.169c-0.215-0.428-0.322-1.039-0.322-1.833V76.51H24.718L24.718,76.51z
			"/>
		<path fill="#FFFFFF" d="M35.71,76.51h0.875v5.686h3.238v0.77h-4.112L35.71,76.51L35.71,76.51z"/>
		<path fill="#FFFFFF" d="M50.183,76.51v0.769h-2.175v5.687h-0.883v-5.687H44.95V76.51H50.183z"/>
		<path fill="#FFFFFF" d="M56.624,76.51h0.883v6.455h-0.883V76.51z"/>
		<path fill="#FFFFFF" d="M64.343,76.51h1.253l1.855,5.458l1.843-5.458h1.244v6.455h-0.835v-3.81c0-0.132,0.003-0.351,0.009-0.655
			s0.009-0.631,0.009-0.979l-1.843,5.444h-0.866l-1.86-5.444v0.197c0,0.158,0.005,0.399,0.013,0.723
			c0.01,0.324,0.014,0.562,0.014,0.715v3.81h-0.835V76.51L64.343,76.51z"/>
		<path fill="#FFFFFF" d="M77.383,76.51h4.684v0.79h-3.831v1.961h3.541v0.747h-3.541v2.188h3.897v0.77h-4.75V76.51z"/>
		<path fill="#FFFFFF" d="M88.779,76.51h2.58c0.876,0,1.555,0.314,2.037,0.944c0.431,0.568,0.646,1.297,0.646,2.185
			c0,0.686-0.127,1.305-0.382,1.858c-0.447,0.979-1.218,1.468-2.311,1.468h-2.571V76.51z M91.188,82.218
			c0.29,0,0.527-0.031,0.714-0.092c0.332-0.114,0.604-0.335,0.815-0.659c0.17-0.261,0.291-0.595,0.365-1.002
			c0.043-0.243,0.064-0.469,0.064-0.677c0-0.8-0.155-1.421-0.466-1.863s-0.812-0.664-1.502-0.664h-1.517v4.957H91.188L91.188,82.218
			z"/>
		<path fill="#FFFFFF" d="M100.875,76.51h0.883v6.455h-0.883V76.51z"/>
		<path fill="#FFFFFF" d="M110.499,76.51h0.987l2.343,6.455h-0.958l-0.674-1.934h-2.532l-0.699,1.934h-0.896L110.499,76.51z
			 M111.949,80.319l-0.993-2.852l-1.033,2.852H111.949z"/>
	</g>
</g>
</svg>
